<?xml version="1.0" encoding="utf-8"?>
<!-- Designed by Vexels.com - 2020 All Rights Reserved - https://vexels.com/terms-and-conditions/  -->
<svg version="1.1" id="Capa_1" xmlns="http://www.w3.org/2000/svg" xmlns:xlink="http://www.w3.org/1999/xlink" x="0px" y="0px"
	 viewBox="0 0 1200 1200" enable-background="new 0 0 1200 1200" xml:space="preserve">
<g>
	<path fill="#6E7BA0" d="M342.235,525.826c12.976,0.089,25.959-0.031,38.927,0.337c9.16,0.26,18.33,0.2,27.476,0.655
		c6.279,0.312,12.555,0.309,18.83,0.504c6.584,0.205,13.168,0.426,19.751,0.661c4.731,0.169,9.461,0.346,14.19,0.565
		c6.886,0.319,13.771,0.678,20.656,1.021c0.206,0.01,0.411,0.028,0.617,0.035c6.789,0.247,13.579,0.453,20.366,0.751
		c6.99,0.307,13.976,0.702,20.963,1.06c0.206,0.01,0.411,0.03,0.617,0.038c6.582,0.255,13.167,0.467,19.746,0.777
		c6.166,0.29,12.327,0.684,18.49,1.032c0.206,0.012,0.411,0.033,0.617,0.042c5.964,0.255,11.93,0.469,17.891,0.776
		c5.754,0.296,11.502,0.689,17.253,1.04c0.308,0.019,0.616,0.047,0.925,0.061c5.552,0.255,11.106,0.467,16.654,0.774
		c5.033,0.279,10.06,0.662,15.09,1c0.308,0.021,0.616,0.053,0.924,0.068c5.448,0.259,10.899,0.472,16.345,0.785
		c4.724,0.272,9.442,0.656,14.163,0.991c0.411,0.029,0.821,0.068,1.232,0.089c5.036,0.26,10.075,0.472,15.107,0.789
		c4.312,0.272,8.615,0.677,12.923,1c3.078,0.23,6.158,0.429,9.239,0.626c4.313,0.275,8.629,0.514,12.941,0.806
		c4.311,0.292,8.619,0.629,12.927,0.95c0.718,0.053,1.435,0.133,2.154,0.18c7.188,0.465,14.377,0.91,21.563,1.393
		c5.646,0.38,11.291,0.781,16.932,1.219c6.667,0.517,13.329,1.101,19.996,1.621c3.796,0.296,7.598,0.501,11.395,0.786
		c4.001,0.301,7.998,0.647,11.997,0.975c2.974,0.243,5.946,0.505,8.921,0.727c3.694,0.276,7.392,0.495,11.085,0.786
		c3.59,0.283,7.174,0.626,10.761,0.944c2.972,0.263,5.943,0.548,8.917,0.788c3.385,0.273,6.776,0.462,10.158,0.765
		c5.533,0.496,11.061,1.057,16.591,1.586c2.458,0.235,4.917,0.469,7.376,0.686c5.432,0.479,10.869,0.915,16.297,1.429
		c5.326,0.504,10.643,1.095,15.967,1.626c4.915,0.49,9.834,0.932,14.748,1.431c5.118,0.52,10.231,1.087,15.347,1.627
		c4.503,0.475,9.007,0.929,13.509,1.414c4.91,0.529,9.818,1.08,14.727,1.624c4.295,0.477,8.591,0.949,12.885,1.44
		c4.805,0.55,9.609,1.109,14.411,1.682c5.62,0.671,11.244,1.314,16.855,2.052c10.305,1.357,20.605,2.753,30.902,4.173
		c17.439,2.406,34.815,5.223,52.15,8.272c11.154,1.962,22.277,4.132,33.157,7.348c2.96,0.875,5.878,1.898,8.788,2.929
		c1.06,0.375,2.088,0.896,3.048,1.485c1.4,0.86,2.184,2.167,2.235,3.835c0.041,1.336,0.036,2.674,0.019,4.01
		c-0.025,2.055-0.997,3.568-2.841,4.408c-1.777,0.81-3.605,1.522-5.449,2.169c-7.01,2.458-14.225,4.162-21.474,5.739
		c-13.789,3-27.709,5.278-41.643,7.466c-10.169,1.597-20.341,3.185-30.529,4.652c-8.557,1.232-17.136,2.308-25.712,3.407
		c-9.289,1.19-18.58,2.374-27.88,3.472c-8.176,0.965-16.367,1.801-24.55,2.704c-6.649,0.734-13.293,1.506-19.944,2.216
		c-4.809,0.513-9.628,0.939-14.44,1.429c-7.268,0.739-14.533,1.515-21.803,2.245c-4.915,0.494-9.834,0.936-14.752,1.403
		c-6.044,0.573-12.086,1.159-18.131,1.716c-3.177,0.293-6.359,0.523-9.536,0.807c-3.484,0.311-6.966,0.656-10.45,0.976
		c-2.767,0.254-5.533,0.516-8.302,0.735c-6.155,0.488-12.313,0.932-18.467,1.432c-3.589,0.291-7.171,0.673-10.759,0.983
		c-3.076,0.266-6.154,0.506-9.233,0.724c-3.901,0.276-7.806,0.484-11.705,0.783c-3.795,0.291-7.584,0.674-11.378,0.99
		c-2.974,0.248-5.949,0.478-8.927,0.679c-4.107,0.277-8.219,0.484-12.324,0.784c-4.104,0.299-8.203,0.687-12.305,1.014
		c-2.975,0.237-5.951,0.456-8.928,0.65c-4.21,0.274-8.425,0.487-12.634,0.783c-4.208,0.296-8.41,0.678-12.616,0.994
		c-3.284,0.246-6.57,0.46-9.856,0.667c-4.416,0.278-8.836,0.509-13.25,0.812c-4.516,0.31-9.027,0.695-13.542,1.025
		c-3.284,0.24-6.569,0.47-9.856,0.66c-4.829,0.279-9.662,0.492-14.49,0.784c-5.032,0.305-10.061,0.671-15.091,1.011
		c-0.308,0.021-0.615,0.058-0.924,0.073c-5.243,0.256-10.487,0.476-15.728,0.774c-5.239,0.299-10.473,0.676-15.709,1.02
		c-0.205,0.014-0.411,0.036-0.616,0.046c-5.449,0.256-10.9,0.481-16.346,0.776c-5.651,0.306-11.298,0.681-16.946,1.026
		c-0.308,0.019-0.616,0.05-0.925,0.063c-6.17,0.261-12.342,0.485-18.51,0.79c-5.96,0.295-11.917,0.675-17.875,1.017
		c-0.206,0.012-0.411,0.031-0.617,0.04c-5.862,0.241-11.725,0.457-17.585,0.729c-7.401,0.343-14.8,0.732-22.199,1.101
		c-0.206,0.01-0.411,0.025-0.617,0.032c-7.407,0.257-14.816,0.476-22.221,0.78c-7.197,0.296-14.39,0.68-21.585,1.025
		c-0.309,0.015-0.617,0.034-0.926,0.043c-9.261,0.264-18.53,0.383-27.781,0.835c-8.129,0.398-16.271,0.247-24.386,0.685
		c-8.236,0.444-16.476,0.171-24.7,0.568c-14.202,0.686-28.414,0.323-42.614,0.621c-0.715-0.024-1.436-0.03-2.153-0.076
		c-0.631-0.041-1.259-0.128-1.889-0.195c0.836-0.377,1.642-0.446,2.447-0.535c5.101-0.563,10.19-1.285,15.304-1.652
		c5.63-0.404,11.282-0.537,16.927-0.684c4.213-0.11,8.432,0.025,12.644-0.094c4.72-0.134,9.441-0.354,14.151-0.681
		c4.299-0.299,8.59-0.747,12.876-1.209c5.412-0.584,10.825-1.123,16.273-1.212c0.308-0.005,0.616-0.037,0.922-0.069
		c3.674-0.386,7.346-0.787,11.021-1.157c2.553-0.257,5.113-0.456,7.666-0.711c3.268-0.326,6.528-0.739,9.8-1.015
		c5.83-0.491,11.666-0.91,17.5-1.351c0.84-0.063,1.643-0.171,2.18-0.927c0.394-0.003,0.788-0.006,1.183-0.009
		c2.277,0.516,4.537,0.694,6.739-0.328c1.225-0.052,2.449-0.104,3.674-0.156c1.079,0.261,2.132,0.253,3.131-0.306
		c0.424-0.019,0.848-0.039,1.273-0.058c0.411,0.304,0.807,0.284,1.189-0.054c0.417-0.019,0.834-0.039,1.251-0.058
		c1.87,0.087,3.755,0.355,5.544-0.481c0.628-0.037,1.256-0.075,1.884-0.112c1.865,0.062,3.75,0.33,5.53-0.516
		c0.626-0.04,1.252-0.079,1.877-0.119c1.668,0.104,3.344,0.292,4.922-0.492c0.629-0.037,1.257-0.074,1.886-0.111
		c1.665,0.094,3.338,0.277,4.918-0.487c0.828-0.051,1.657-0.102,2.485-0.153c3.67,0.352,7.258-0.489,10.886-0.756
		c0.287-0.021,0.561-0.22,0.841-0.337c0.827-0.052,1.654-0.103,2.481-0.155c1.471,0.131,2.942,0.269,4.324-0.45
		c0.826-0.052,1.653-0.103,2.479-0.155c1.868,0.081,3.754,0.343,5.534-0.517c0.424-0.028,0.849-0.056,1.273-0.084
		c1.667,0.096,3.343,0.286,4.924-0.488c0.628-0.038,1.255-0.076,1.883-0.114c1.864,0.049,3.749,0.325,5.526-0.527
		c0.425-0.026,0.85-0.053,1.275-0.079c1.864,0.043,3.751,0.319,5.53-0.528c0.225-0.016,0.451-0.031,0.676-0.047
		c2.061-0.008,4.155,0.328,6.13-0.584c0.212-0.013,0.423-0.025,0.635-0.038c0.617,0.019,1.239,0.097,1.85,0.048
		c3.588-0.289,7.176-0.576,10.758-0.927c2.661-0.261,5.307-0.673,7.969-0.92c3.276-0.303,6.564-0.483,9.844-0.755
		c2.664-0.221,5.325-0.493,7.986-0.754c3.274-0.321,6.546-0.673,9.822-0.977c4.197-0.39,8.397-0.751,12.596-1.116
		c2.971-0.259,5.943-0.515,8.915-0.752c3.383-0.27,6.769-0.503,10.152-0.778c2.357-0.192,4.711-0.425,7.065-0.647
		c3.685-0.347,7.367-0.728,11.054-1.044c3.381-0.289,6.77-0.489,10.152-0.77c2.562-0.212,5.117-0.492,7.676-0.738
		c3.377-0.325,6.753-0.671,10.133-0.96c3.381-0.289,6.769-0.504,10.152-0.779c2.357-0.192,4.711-0.427,7.065-0.649
		c3.685-0.347,7.367-0.728,11.054-1.043c3.381-0.289,6.77-0.493,10.153-0.768c2.46-0.2,4.915-0.447,7.371-0.69
		c3.274-0.324,6.543-0.706,9.821-0.988c3.483-0.3,6.977-0.487,10.461-0.772c4.509-0.369,9.014-0.777,13.52-1.184
		c2.868-0.259,5.732-0.547,8.599-0.819c3.378-0.321,6.754-0.663,10.134-0.952c3.381-0.289,6.769-0.506,10.151-0.788
		c4.303-0.358,8.602-0.765,12.905-1.117c1.227-0.1,2.428-0.23,3.684-0.806c-1.216-0.777-2.756,0.175-3.867-1.034
		c0.412-0.24,0.645-0.479,0.902-0.509c3.983-0.467,7.968-0.921,11.956-1.347c2.659-0.284,5.326-0.488,7.984-0.782
		c4.906-0.542,9.809-1.121,14.713-1.69c3.985-0.462,7.97-0.927,11.954-1.396c6.639-0.782,13.278-1.567,19.917-2.352
		c1.941-0.229,3.884-0.443,5.82-0.708c0.749-0.103,1.523-0.232,2.666-1.044c-3.772,0-6.957,0.02-10.141-0.009
		c-1.336-0.012-2.695,0.008-4.002-0.223c-2.661-0.47-5.322-0.508-8.001-0.368c-4.103-0.439-8.205-0.878-12.308-1.318
		c-1.604-0.653-3.22-1.208-4.979-0.622c-0.805-0.045-1.61-0.09-2.415-0.135c-0.447-0.535-0.894-1.07-1.397-1.671
		c0.353-0.206,0.596-0.461,0.859-0.483c3.173-0.266,6.347-0.518,9.524-0.733c3.997-0.271,8.003-0.436,11.995-0.773
		c6.143-0.518,12.293-0.851,18.447-1.194c6.163-0.343,12.321-0.544,18.489-0.574c0.411-0.002,0.824,0.003,1.234-0.018
		c0.616-0.031,1.231-0.083,1.846-0.125c1.946-0.132,3.891-0.341,5.839-0.38c4.011-0.08,8.024-0.058,12.036-0.103
		c1.129-0.013,2.259-0.099,3.386-0.174c1.639-0.11,3.275-0.32,4.915-0.347c4.526-0.074,9.053-0.073,13.58-0.105
		c0.823-0.006,1.665,0.08,2.465-0.063c4.391-0.787,8.823-0.44,13.237-0.556c0.686-0.018,1.372-0.045,2.058-0.069
		c-1.111-0.396-2.226-0.432-3.341-0.433c-21.297-0.024-42.593-0.043-63.89-0.068c-1.234-0.002-2.492,0.092-3.697-0.11
		c-2.966-0.498-5.946-0.407-8.926-0.436c-2.469-0.024-4.94,0.025-7.407-0.06c-5.34-0.183-10.7-0.207-16.01-0.721
		c-4.421-0.428-8.831-0.366-13.246-0.524c-2.874-0.103-5.745-0.312-8.62-0.388c-0.897-0.024-1.802,0.232-2.703,0.359
		c-0.397-0.008-0.794-0.015-1.191-0.023c-1.145-0.614-2.397-0.513-3.626-0.524c-4.116-0.04-8.257,0.215-12.341-0.157
		c-5.552-0.506-11.1-0.322-16.649-0.49c-0.925-0.028-1.851-0.054-2.775-0.107c-2.563-0.148-5.124-0.348-7.688-0.458
		c-6.059-0.26-12.119-0.479-18.178-0.715c-0.206-0.008-0.415-0.008-0.615-0.05c-2.744-0.571-5.53-0.415-8.304-0.51
		c-1.743-0.06-3.481-0.262-5.222-0.389c-1.025-0.075-2.051-0.136-3.078-0.188c-4.824-0.244-9.648-0.481-14.471-0.725
		c-0.308-0.016-0.613-0.074-0.921-0.097c-4.609-0.349-9.217-0.698-13.826-1.041c-3.586-0.267-7.197-0.346-10.754-0.83
		c-4.619-0.628-9.229-0.552-13.856-0.427c-15.226-0.046-21.073-0.322-23.283-1.119c-0.045-0.57-0.091-1.168-0.148-1.888
		c0.632-0.098,1.119-0.226,1.61-0.242c5.641-0.176,11.282-0.336,16.924-0.499c7.198,0.335,14.368-0.007,21.529-0.782
		c3.875-0.419,7.762-0.746,11.651-1.006c4.608-0.307,9.224-0.496,13.836-0.74c0.307-0.016,0.613-0.068,0.92-0.09
		c4.809-0.349,9.614-0.767,14.428-1.024c5.945-0.317,11.897-0.499,17.847-0.741c0.205-0.008,0.411-0.022,0.615-0.044
		c6.639-0.727,13.324-0.61,19.979-1.07c2.354-0.162,4.726-0.065,7.09-0.097c1.031-0.014,2.08,0,2.809-0.933
		c3.465-0.001,6.93-0.003,10.394-0.004c0.697,0.124,1.394,0.354,2.091,0.355c4.484,0.004,8.968-0.018,13.451-0.097
		c0.788-0.014,1.57-0.338,2.355-0.52c0.629-0.014,1.257-0.029,1.886-0.043c5.761,0.086,11.519,0.216,17.272-0.342
		c3.683-0.357,7.38-0.619,11.077-0.761c5.96-0.23,11.92-0.19,17.888-0.523c9.238-0.517,18.507-0.269,27.768-0.631
		c10.898-0.425,21.824-0.136,32.739-0.135c1.231,0,2.462,0.137,3.692,0.225c1.332,0.095,2.662,0.281,3.995,0.295
		c4.324,0.043,8.649,0.032,12.973,0.025c0.73-0.001,1.459-0.088,2.189-0.135c-2.69-0.376-5.357-0.361-8.024-0.383
		c-1.131-0.009-2.262-0.078-3.39-0.154c-1.947-0.13-3.889-0.373-5.837-0.416c-3.808-0.084-7.619-0.057-11.428-0.089
		c-0.926-0.008-1.852-0.046-2.777-0.099c-2.564-0.147-5.126-0.381-7.692-0.447c-3.602-0.093-7.207-0.054-10.81-0.095
		c-1.028-0.012-2.055-0.094-3.081-0.162c-1.743-0.115-3.483-0.315-5.227-0.353c-3.5-0.075-7.001-0.062-10.502-0.092
		c-0.823-0.007-1.665,0.062-2.467-0.08c-3.679-0.651-7.393-0.398-11.092-0.516c-1.439-0.046-2.876-0.138-4.313-0.235
		c-1.435-0.097-2.867-0.252-4.302-0.337c-4.413-0.262-8.828-0.502-13.242-0.752c-0.103-0.006-0.204-0.025-0.307-0.033
		c-5.022-0.371-10.045-0.729-15.065-1.12c-1.224-0.095-2.445-0.267-3.657-0.468c-0.39-0.065-0.743-0.339-0.529-0.96
		c0.885-0.33,1.831-0.683,2.777-1.036c0.625-0.025,1.251-0.049,1.876-0.074c1.072,0.148,2.112,0.092,3.068-0.488
		c3.929-0.443,7.859-0.886,11.788-1.329c2.262-0.039,4.53,0.01,6.785-0.135c4.613-0.296,9.22-0.693,13.828-1.059
		c0.483-0.038,0.961-0.142,1.441-0.215c-1.976-0.472-3.906-0.737-5.84-0.965c-4.695-0.554-9.394-1.077-14.089-1.637
		c-3.879-0.463-7.751-0.985-11.632-1.435c-4.493-0.521-8.991-0.992-13.487-1.487c-4.903-0.54-9.806-1.089-14.709-1.624
		c-2.043-0.223-4.09-0.418-6.134-0.633c-2.453-0.258-4.907-0.509-7.356-0.801c-0.465-0.056-1.042-0.136-1.015-1.05
		c1.077-0.301,2.202-0.616,3.821-1.069c-4.005-0.299-7.485-0.543-10.963-0.824c-2.869-0.232-5.735-0.491-8.6-0.77
		c-3.273-0.318-6.54-0.697-9.813-1.004c-4.297-0.403-8.597-0.766-12.896-1.137c-2.97-0.256-5.94-0.505-8.911-0.741
		c-3.381-0.269-6.765-0.507-10.145-0.784c-2.355-0.193-4.708-0.426-7.061-0.647c-3.683-0.345-7.363-0.721-11.048-1.035
		c-3.379-0.289-6.766-0.497-10.146-0.773c-2.458-0.201-4.913-0.448-7.367-0.69c-3.272-0.323-6.539-0.702-9.815-0.984
		c-3.481-0.3-6.973-0.488-10.456-0.772c-4.506-0.367-9.008-0.78-13.512-1.176c-0.512-0.045-1.022-0.119-1.534-0.171
		c-3.272-0.33-6.542-0.676-9.816-0.98c-4.195-0.39-8.392-0.751-12.589-1.116c-2.969-0.258-5.939-0.513-8.91-0.75
		c-3.381-0.269-6.765-0.501-10.146-0.777c-2.356-0.192-4.708-0.425-7.061-0.647c-3.682-0.347-7.362-0.728-11.047-1.043
		c-3.379-0.289-6.766-0.489-10.147-0.769c-2.56-0.212-5.115-0.488-7.672-0.738c-3.273-0.319-6.542-0.673-9.819-0.953
		c-3.38-0.288-6.775-0.411-10.146-0.773c-6.132-0.659-12.24-1.525-18.407-1.861c-2.873-0.157-5.736-0.488-8.602-0.759
		c-3.275-0.31-6.546-0.667-9.823-0.956c-3.278-0.288-6.561-0.509-9.841-0.775c-2.562-0.208-5.123-0.431-7.683-0.661
		c-3.993-0.359-7.984-0.738-11.978-1.093c-3.073-0.273-6.145-0.556-9.222-0.77c-2.868-0.199-5.743-0.312-8.615-0.463
		c-0.2-0.015-0.399-0.03-0.599-0.044c-0.588-0.172-1.167-0.449-1.765-0.501c-5.432-0.469-10.868-0.887-16.301-1.342
		c-3.792-0.317-7.579-0.696-11.373-0.991c-1.937-0.15-3.897-0.479-5.807,0.225c-0.378-0.01-0.756-0.02-1.134-0.03
		c-0.709-0.969-1.771-0.894-2.797-0.966c-3.384-0.235-6.771-0.442-10.148-0.748c-5.834-0.528-11.662-1.121-17.493-1.69
		c-4.705-0.459-9.409-0.939-14.115-1.38c-2.25-0.211-4.506-0.359-6.76-0.524c-1.026-0.075-2.056-0.097-3.081-0.186
		c-3.788-0.329-7.573-0.69-11.361-1.011c-3.278-0.277-6.567-0.438-9.837-0.788c-5.934-0.634-11.865-1.202-17.844-1.127
		c-3.088,0.039-6.177-0.013-9.266-0.039c-0.926-0.008-1.852-0.053-2.776-0.104c-2.36-0.131-4.723-0.441-7.077-0.38
		c-5.468,0.143-10.89-0.493-16.332-0.773c-2.153-0.111-4.298-0.4-6.444-0.639c-0.817-0.091-1.621-0.293-2.436-0.402
		c-0.885-0.119-1.776-0.19-2.665-0.281c0.006-0.135,0.012-0.27,0.018-0.406C338.164,525.953,340.199,525.889,342.235,525.826z"/>
	<path fill="#C1C7DC" d="M72.951,645.824c-4.818-3.338-8.399-7.862-11.818-12.504c-6.113-8.299-9.79-17.608-10.846-27.858
		c-0.734-7.123-0.056-14.165,1.983-21.066c2.584-8.743,7.147-16.363,13.046-23.236c0.598-0.697,1.342-1.27,2.018-1.9
		c0.399-0.203,0.799-0.406,1.199-0.609l-0.031-0.002c0.891-0.223,1.802-0.39,2.671-0.679c2.929-0.975,5.825-2.052,8.767-2.983
		c7.16-2.265,14.525-2.803,21.975-2.336c4.205,0.264,8.404,0.654,12.598,1.063c4.808,0.469,9.643,0.801,14.402,1.585
		c10.867,1.789,21.622,4.156,32.29,6.902c7.21,1.856,14.103,4.528,20.678,8.007c0.885,0.468,1.623,1.211,2.428,1.826
		c-1.421-0.233-2.833-0.53-4.26-0.687c-9.683-1.067-18.568,1.033-26.568,6.689c-5.65,3.995-8.994,9.464-10.495,16.136
		c-1.084,4.818-1.119,9.578,0.932,14.19c1.43,3.216,3.344,6.118,5.737,8.706c4.669,5.05,10.551,8.08,16.979,10.203
		c0.877,0.29,1.873,0.377,2.627,0.852c2.115,1.334,4.447,1.483,6.82,1.556c2.211,0.911,4.523,0.622,6.814,0.574
		c0.406,0.017,0.812,0.033,1.217,0.05c1.105,0.18,2.204,0.427,3.316,0.524c1.227,0.107,2.467,0.064,3.7,0.114
		c0.412,0.017,0.804,0.137,0.763,0.867c-0.326,0.218-0.729,0.516-1.159,0.77c-5.589,3.3-11.437,6.079-17.386,8.661
		c-7.852,3.408-15.959,6.053-24.257,8.126c-7.719,1.928-15.631,2.635-23.519,2.995c-6.239,0.285-12.525-0.333-18.783-0.675
		c-3.588-0.196-7.162-0.641-10.742-0.978c-2.148-0.202-4.292-0.507-6.445-0.595c-3.009-0.124-5.923-0.648-8.766-1.616
		C78.208,647.604,75.579,646.715,72.951,645.824z"/>
	<path fill="#8F9CBA" d="M184.311,572.036c-0.806-0.616-1.545-1.359-2.43-1.827c-6.575-3.479-13.468-6.151-20.678-8.007
		c-10.669-2.746-21.423-5.113-32.29-6.902c-4.759-0.784-9.595-1.116-14.402-1.585c-4.194-0.409-8.393-0.799-12.598-1.063
		c-7.449-0.467-14.814,0.071-21.975,2.336c-2.942,0.931-5.838,2.008-8.767,2.983c-0.869,0.289-1.779,0.456-2.671,0.679
		c0.168-1.098,0.924-1.825,1.695-2.489c2.406-2.07,4.795-4.168,7.293-6.123c10.289-8.053,22.013-13.028,34.708-15.763
		c4.298-0.926,8.67-1.563,13.107-1.579c1.734-0.006,3.466-0.295,5.198-0.456c1.004,0.16,2.004,0.387,3.016,0.464
		c1.436,0.109,2.889,0.024,4.319,0.17c3.376,0.344,6.746,0.755,10.114,1.177c2.347,0.294,4.691,0.616,7.027,0.988
		c7.041,1.119,13.847,3.187,20.621,5.318c6.593,2.073,12.947,4.758,18.898,8.323c4.68,2.803,9.422,5.506,14.032,8.42
		c5.743,3.63,11.404,7.39,16.551,11.863c3.105,2.699,6.277,5.321,9.386,8.015c2.954,2.559,5.956,5.071,8.774,7.774
		c4.085,3.919,8.024,7.99,12.022,12.001c0.508,0.51,1.023,1.019,1.482,1.573c0.968,1.169,1.004,1.704,0.063,3.018
		c-0.656,0.917-1.38,1.8-2.172,2.601c-3.837,3.88-7.704,7.729-11.568,11.582c-0.51,0.508-1.056,0.98-1.6,1.452
		c-2.564,2.223-5.125,4.451-7.704,6.656c-3.284,2.807-6.582,5.598-9.879,8.389c-5.045,4.271-10.617,7.803-16.168,11.346
		c-4.596,2.934-9.281,5.745-14.055,8.379c-6.686,3.69-13.707,6.596-21.068,8.739c-6.333,1.843-12.657,3.664-19.183,4.681
		c-2.03,0.316-4.079,0.514-6.12,0.76c-5.616,0.677-11.217,1.526-16.896,1.464c-9.925-0.113-19.628-1.578-29.015-4.862
		c-7.1-2.484-13.916-5.553-20.004-10.06c-2.226-1.648-4.484-3.252-6.691-4.924c-0.643-0.488-1.158-1.144-1.731-1.722
		c2.629,0.892,5.258,1.781,7.885,2.675c2.843,0.968,5.757,1.492,8.766,1.616c2.153,0.089,4.296,0.393,6.445,0.595
		c3.58,0.337,7.154,0.781,10.742,0.978c6.258,0.342,12.545,0.96,18.783,0.675c7.889-0.361,15.8-1.067,23.519-2.995
		c8.298-2.073,16.405-4.718,24.257-8.126c5.949-2.582,11.797-5.361,17.386-8.661c0.43-0.254,0.834-0.552,1.159-0.77
		c0.041-0.731-0.351-0.851-0.763-0.867c-1.233-0.05-2.473-0.007-3.7-0.114c-1.112-0.097-2.211-0.344-3.316-0.524
		c3.257,0.01,6.515,0.024,9.772,0.028c3.157,0.004,6.314,0.012,9.47-0.018c0.558-0.005,1.252,0.161,1.557-0.581
		c-0.033-0.101-0.037-0.244-0.094-0.271c-0.451-0.21-0.906-0.416-1.372-0.59c-1.137-0.423-2.28-0.828-3.421-1.241
		c0.503-1.185,1.663-1.698,2.552-2.488c0.743-0.661,1.488-1.319,2.233-1.979c0.921-0.083,1.841-0.187,2.764-0.245
		c3.999-0.252,8.001-0.453,11.997-0.75c1.74-0.129,3.47-0.419,5.195-0.693c0.575-0.091,1.121-0.362,1.753-0.576
		c-0.612-1.054-1.503-0.94-2.27-0.965c-2.467-0.079-4.938-0.055-7.406-0.13c-1.127-0.034-2.268-0.113-3.368-0.341
		c-1.04-0.216-2.201,0.106-3.31-0.556c0.334-0.358,0.492-0.647,0.735-0.769c1.838-0.924,3.691-1.816,5.541-2.717
		c0.863-0.421,1.753-0.476,2.704-0.327c3.147,0.492,6.3,0.947,9.454,1.394c2.893,0.41,5.747,0.159,8.554-0.623
		c0.518-0.144,0.903-0.481,0.733-1.153c-0.772-0.753-1.834-0.819-2.812-1.089c-2.478-0.685-4.964-1.343-7.433-2.059
		c-0.539-0.157-1.276-0.177-1.386-1.303c0.099-0.061,0.361-0.216,0.616-0.383c2.062-1.354,4.139-2.687,6.174-4.08
		c0.8-0.548,1.643-0.779,2.59-0.851c2.458-0.188,4.927-0.329,7.365-0.677c2.234-0.319,4.447-0.831,6.642-1.365
		c0.952-0.232,2.004-0.488,2.479-1.5c-0.305-1.077-1.197-1.184-1.948-1.411c-3.26-0.986-6.602-1.523-9.999-1.767
		c-2.048-0.147-4.094-0.346-6.131-0.602c-0.694-0.087-1.4-0.336-2.027-0.656c-1.656-0.846-4.729-3.855-6.203-6.011
		c0.785-0.065,1.47-0.165,2.157-0.172c3.086-0.031,6.174-0.003,9.259-0.068c1.121-0.024,2.243-0.214,3.353-0.399
		c0.35-0.058,0.856-0.191,0.605-0.96c-0.394-0.1-0.866-0.265-1.352-0.337c-2.44-0.359-4.88-0.722-7.326-1.032
		c-4.179-0.529-8.365-1-12.542-1.537c-1.827-0.235-3.687-0.359-5.368-1.262c-4.257-2.287-8.525-4.554-12.783-6.84
		c-0.342-0.183-0.752-0.38-0.537-0.949c2.633-0.264,5.279-0.554,7.931-0.789c5.321-0.47,10.644-0.901,15.964-1.38
		c0.305-0.027,0.583-0.342,1.21-0.732c-0.947-0.35-1.496-0.67-2.076-0.746c-2.442-0.319-4.892-0.59-7.344-0.827
		c-1.329-0.129-2.668-0.142-4.001-0.232c-1.639-0.11-3.275-0.34-4.914-0.353c-6.893-0.057-13.786-0.044-20.68-0.081
		C186.349,572.255,185.331,572.114,184.311,572.036z"/>
	<path fill="#6E7BA0" d="M130.391,667.391c5.68,0.062,11.281-0.787,16.896-1.464c2.041-0.246,4.09-0.444,6.12-0.76
		c6.526-1.017,12.85-2.838,19.183-4.681c7.362-2.143,14.383-5.049,21.068-8.739c4.773-2.634,9.459-5.445,14.055-8.379
		c5.55-3.543,11.123-7.075,16.168-11.346c3.297-2.791,6.595-5.582,9.879-8.389c2.58-2.205,5.14-4.433,7.704-6.656
		c0.544-0.472,1.09-0.944,1.6-1.452c3.864-3.852,7.732-7.702,11.568-11.582c0.792-0.801,1.516-1.685,2.172-2.601
		c0.941-1.314,0.905-1.849-0.063-3.018c-0.459-0.554-0.973-1.063-1.482-1.573c-3.997-4.01-7.937-8.082-12.022-12.001
		c-2.817-2.703-5.82-5.215-8.774-7.774c-3.11-2.694-6.281-5.316-9.386-8.015c-5.147-4.473-10.808-8.233-16.551-11.863
		c-4.61-2.914-9.352-5.617-14.032-8.42c-5.951-3.564-12.305-6.249-18.898-8.323c-6.774-2.13-13.581-4.199-20.621-5.318
		c-2.336-0.371-4.68-0.693-7.027-0.988c-3.368-0.422-6.738-0.833-10.114-1.177c-1.431-0.146-2.883-0.061-4.319-0.17
		c-1.012-0.077-2.012-0.304-3.016-0.464c6.149-1.224,12.354-2.027,18.596-2.577c3.577-0.315,7.145-0.751,10.725-1.023
		c2.763-0.21,5.54-0.249,8.309-0.363c1.228,0.022,2.458,0.08,3.687,0.055c1.772-0.036,3.451,0.333,5.11,0.929
		c7.139,2.565,14.27,5.146,21.183,8.289c0.908,0.413,1.96,0.679,2.954,0.706c4.71,0.128,9.413,0.2,14.122,0.554
		c4.387,0.33,8.813,0.154,13.222,0.136c1.109-0.004,2.217-0.255,3.325-0.393c0.348,0.026,0.696,0.052,1.045,0.079
		c0.354,0.53,0.788,0.733,1.368,0.332c0.417,0.04,0.833,0.081,1.25,0.121c1.186,0.631,2.446,0.527,3.711,0.371
		c1.494,0.036,2.993,0.019,4.482,0.131c0.768,0.058,1.518,0.344,2.276,0.527c-0.717,0.059-1.451,0.041-2.149,0.19
		c-6.361,1.361-12.858,1.581-19.298,2.252c-4.087,0.426-8.212,0.485-12.319,0.721c-0.477,0.027-1.053-0.048-1.198,0.818
		c0.342,0.262,0.719,0.6,1.142,0.866c4.528,2.856,9.09,5.658,13.582,8.569c1.628,1.055,3.303,1.534,5.231,1.494
		c2.572-0.053,5.15,0.011,7.722,0.106c2.567,0.095,5.129,0.364,7.697,0.423c3.912,0.091,7.828,0.06,11.742,0.097
		c1.029,0.01,2.058,0.065,3.085,0.127c2.052,0.124,4.101,0.352,6.154,0.385c4.84,0.078,9.682,0.063,14.523,0.097
		c1.308,0.009,2.633-0.019,4.234,0.89c-0.804,0.163-1.164,0.268-1.532,0.305c-2.763,0.281-5.527,0.544-8.29,0.821
		c-3.274,0.328-6.54,0.769-9.821,0.974c-5.235,0.327-10.48,0.498-15.721,0.736c-0.309,0.014-0.624,0.001-0.924,0.061
		c-3.057,0.613-6.155,0.431-9.24,0.495c-0.927,0.019-1.857-0.003-2.778,0.076c-0.332,0.028-0.643,0.295-0.96,0.451
		c0.171,0.372,0.207,0.616,0.348,0.73c2.958,2.395,5.894,4.819,8.921,7.124c0.688,0.524,1.675,0.786,2.56,0.901
		c4.997,0.652,10.009,1.191,15.008,1.831c5.51,0.705,11.016,1.447,16.516,2.228c4.789,0.68,9.57,1.41,14.347,2.166
		c3.354,0.531,6.698,1.135,10.04,1.735c0.441,0.079,0.851,0.33,1.79,0.709c-0.873,0.321-1.21,0.542-1.557,0.558
		c-4.52,0.213-9.041,0.454-13.564,0.57c-3.5,0.09-7.004,0.02-10.506,0.007c-0.926-0.003-1.863,0.022-2.776-0.101
		c-5.847-0.792-11.726-0.279-17.587-0.477c-0.496-0.017-1.045-0.002-1.242,0.81c1.9,1.751,3.831,3.578,5.826,5.332
		c0.437,0.384,1.087,0.581,1.673,0.731c0.894,0.229,1.813,0.396,2.731,0.494c2.659,0.282,5.331,0.455,7.983,0.791
		c1.627,0.206,3.232,0.61,4.834,0.983c0.316,0.073,0.57,0.411,1.02,0.754c-1.047,0.724-1.987,0.571-2.872,0.585
		c-2.781,0.043-5.561,0.059-8.304,0.614c-0.492,0.1-1.048,0.072-1.219,0.878c0.427,0.578,0.828,1.323,1.42,1.858
		c0.502,0.454,1.197,0.864,1.852,0.952c4.582,0.614,9.181,1.107,13.807,1.232c10.597,0.286,21.201-0.249,31.801,0.553
		c5.735,0.434,11.51,0.208,17.27,0.642c5.349,0.403,10.651,0.984,15.907,2.012c0.883,0.173,1.73,0.588,2.556,0.974
		c0.404,0.188,0.41,1.108,0.03,1.364c-0.418,0.281-0.871,0.565-1.35,0.691c-1.593,0.417-3.186,0.904-4.812,1.112
		c-5.509,0.704-11.018,1.471-16.594,1.403c-0.617-0.007-1.25-0.034-1.85,0.081c-3.266,0.623-6.568,0.456-9.859,0.497
		c-3.502,0.044-7.004,0.022-10.506,0.056c-1.131,0.011-2.261,0.094-3.391,0.166c-1.641,0.104-3.28,0.313-4.922,0.328
		c-7.004,0.064-14.008,0.073-21.012,0.102c-1.441,0.006-2.871-0.018-4.222,0.681c-0.517,0.267-1.238,0.452-1.774,0.315
		c-1.583-0.405-2.567,0.386-3.461,1.455c-0.495,0.591-1.353,1.059-0.76,2.291c0.906,0.056,1.918,0.102,2.926,0.187
		c1.127,0.095,2.249,0.237,3.375,0.338c1.024,0.092,2.05,0.186,3.077,0.227c1.935,0.077,1.935,0.061,3.176,0.75
		c-1.25,0.722-2.56,0.924-3.867,1.076c-3.984,0.463-7.971,0.902-11.961,1.322c-0.945,0.099-1.82,0.294-2.551,0.948
		c-1.764,1.577-3.55,3.128-5.295,4.726c-0.335,0.307-0.52,0.775-0.835,1.263c0.502,0.195,0.773,0.393,1.045,0.393
		c2.265-0.002,4.56,0.183,6.788-0.118c3.392-0.458,6.78-0.413,10.174-0.421c8.343-0.02,16.686-0.007,25.03,0.003
		c1.028,0.001,2.061,0.021,3.082,0.125c0.336,0.034,0.643,0.36,1.287,0.748c-0.833,0.393-1.329,0.758-1.874,0.861
		c-2.427,0.457-4.863,0.875-7.306,1.24c-7.43,1.11-14.853,2.266-22.299,3.261c-8.257,1.103-16.535,2.052-24.806,3.056
		c-1.554,0.189-3.059,0.497-4.316,1.501c-2.813,2.247-5.621,4.501-8.407,6.781c-0.267,0.218-0.367,0.64-0.662,1.186
		c2.883,0.556,5.545,0.221,8.179,0.338c2.775,0.123,5.553,0.182,8.328,0.297c2.672,0.11,5.344,0.228,8.013,0.395
		c2.771,0.173,5.539,0.389,8.306,0.623c2.664,0.225,5.362,0.301,7.976,0.804c2.685,0.516,5.548-0.093,8.166,1.202
		c-0.155,0.16-0.216,0.28-0.284,0.284c-3.69,0.236-7.379,0.573-11.073,0.663c-5.354,0.131-10.711,0.08-16.068,0.113
		c-0.927,0.006-1.874-0.072-2.776,0.089c-3.272,0.581-6.571,0.423-9.862,0.465c-3.399,0.043-6.801-0.031-10.196,0.099
		c-2.565,0.099-5.199,0.138-7.653,0.776c-1.705,0.444-3.157,1.86-4.723,2.84c-0.174,0.109-0.361,0.199-0.535,0.308
		c-3.585,2.228-7.172,4.452-10.747,6.696c-0.409,0.257-0.927,0.52-0.684,1.292c0.883,0.533,1.932,0.268,2.926,0.325
		c4.415,0.256,8.834,0.456,13.247,0.748c2.564,0.17,5.121,0.458,7.678,0.726c3.065,0.321,6.127,0.676,9.191,1.017
		c0.435,0.136,0.869,0.272,1.424,0.445c-0.326,0.309-0.459,0.547-0.603,0.553c-2.72,0.126-5.441,0.224-8.162,0.328
		c-0.654,0.127-1.309,0.254-1.963,0.381c-0.383,0.032-0.767,0.064-1.15,0.096c-2.176-0.922-4.477-0.646-6.672-0.378
		c-3.072,0.375-6.135,0.355-9.206,0.433c-4.607,0.117-9.207,0.119-13.82,0.444c-4.317,0.304-4.962,0.076-9.401,2.337
		c-0.182,0.093-0.381,0.152-0.57,0.232c-6.994,2.949-14.155,5.445-21.332,7.901c-0.567-0.01-1.133-0.02-1.696-0.028
		c-0.664-0.089-1.331-0.179-1.999-0.269c-11.192-0.551-22.342-1.55-33.423-3.233C133.753,668.313,132.081,667.792,130.391,667.391z"
		/>
	<path fill="#8F9CBA" d="M231.735,538.552c-1.108,0.137-2.216,0.388-3.325,0.392c-4.409,0.018-8.836,0.194-13.222-0.136
		c-4.709-0.354-9.412-0.426-14.122-0.554c-0.994-0.027-2.046-0.293-2.954-0.706c-6.914-3.144-14.044-5.725-21.183-8.289
		c-1.659-0.596-3.338-0.965-5.11-0.929c-1.229,0.025-2.459-0.033-3.687-0.055c0.395-0.117,0.782-0.31,1.181-0.338
		c3.586-0.252,7.171-0.529,10.762-0.689c3.284-0.146,6.582,0.051,9.847-0.527c0.802-0.142,1.641-0.084,2.464-0.091
		c11.822-0.097,23.627-0.986,35.456-0.728c11.601-0.996,23.228-0.488,34.842-0.53c25.098-0.09,50.196,0,75.294,0.03
		c1.428,0.002,2.89-0.197,4.26,0.423c-2.037,0.063-4.073,0.126-6.108,0.19c-0.006,0.135-0.012,0.27-0.018,0.406
		c0.889,0.092,1.78,0.162,2.665,0.281c0.815,0.11,1.619,0.311,2.436,0.402c2.145,0.239,4.29,0.528,6.444,0.639
		c5.442,0.28,10.863,0.916,16.332,0.773c2.354-0.062,4.717,0.249,7.077,0.38c0.924,0.051,1.85,0.096,2.776,0.104
		c3.089,0.026,6.178,0.078,9.266,0.039c5.979-0.075,11.91,0.493,17.844,1.127c3.27,0.349,6.559,0.51,9.837,0.788
		c3.788,0.32,7.573,0.682,11.361,1.011c1.024,0.089,2.055,0.111,3.081,0.186c2.254,0.165,4.51,0.313,6.76,0.524
		c4.707,0.441,9.41,0.92,14.115,1.38c5.83,0.569,11.659,1.162,17.493,1.69c3.378,0.306,6.765,0.513,10.148,0.748
		c1.026,0.071,2.088-0.003,2.797,0.967c-1.126,0.073-2.252,0.212-3.378,0.204c-3.701-0.027-7.392-0.215-11.09-0.457
		c-6.048-0.395-12.121-0.207-18.186-0.64c-6.249-0.446-12.532-0.164-18.804-0.605c-6.865-0.483-13.767-0.157-20.656-0.618
		c-7.38-0.494-14.795-0.164-22.2-0.605c-8.925-0.532-17.883-0.142-26.831-0.621c-10.675-0.571-21.381-0.199-32.08-0.594
		c-17.266-0.637-34.556-0.072-51.839-0.621c-14.187-0.451-28.399-0.109-42.6-0.114c-4.425-0.002-8.85,0-13.275,0.02
		c-0.66,0.003-1.319,0.117-1.978,0.179c0.473,0.633,0.986,0.898,1.531,1.03c4.399,1.068,8.809,2.09,13.203,3.177
		C229.534,537.487,230.827,537.563,231.735,538.552z"/>
	<path fill="#8F9CBA" d="M172.583,672.104c7.177-2.456,14.339-4.951,21.332-7.901c0.189-0.08,0.388-0.139,0.57-0.232
		c4.439-2.26,5.085-2.033,9.401-2.337c4.612-0.324,9.213-0.327,13.82-0.444c3.071-0.078,6.135-0.057,9.206-0.433
		c2.196-0.268,4.497-0.544,6.672,0.378c-1.154,0.41-2.283,0.911-3.464,1.212c-4.785,1.222-9.586,2.381-14.379,3.568
		c-0.577,0.143-1.146,0.319-2.227,0.622c0.8,0.375,1.124,0.641,1.464,0.665c1.127,0.078,2.261,0.097,3.392,0.09
		c17.794-0.109,35.587,0.157,53.384-0.389c17.681-0.542,35.382,0.181,53.073-0.623c11.091-0.504,22.209,0.025,33.315-0.62
		c8.72-0.507,17.472-0.033,26.215-0.594c7.893-0.506,15.826-0.112,23.742-0.649c6.661-0.452,13.354-0.169,20.039-0.585
		c8.82-0.549,17.676-0.526,26.515-0.791c2.978-0.089,5.95-0.394,8.927-0.445c3.489-0.06,6.982,0.05,10.473,0.086
		c-0.537,0.756-1.34,0.864-2.18,0.927c-5.834,0.44-11.67,0.86-17.5,1.351c-3.272,0.276-6.532,0.688-9.8,1.015
		c-2.554,0.255-5.113,0.454-7.666,0.711c-3.675,0.37-7.347,0.771-11.021,1.157c-0.307,0.032-0.615,0.064-0.922,0.069
		c-5.448,0.09-10.861,0.628-16.273,1.212c-4.286,0.463-8.576,0.91-12.876,1.209c-4.71,0.327-9.431,0.548-14.151,0.681
		c-4.212,0.12-8.432-0.016-12.644,0.094c-5.645,0.147-11.297,0.28-16.927,0.684c-5.115,0.367-10.204,1.09-15.304,1.652
		c-0.805,0.089-1.611,0.158-2.447,0.535c0.629,0.067,1.258,0.154,1.889,0.195c0.718,0.047,1.438,0.052,2.153,0.076
		c-1.425,0.135-2.846,0.386-4.267,0.388c-21.596,0.039-43.192,0.046-64.787,0.058c-3.394,0.002-6.789,0.055-10.181-0.026
		c-8.937-0.213-17.869-0.693-26.814-0.537c-0.72,0.013-1.441-0.03-2.159-0.005c-8.024,0.281-16.017-0.637-24.035-0.615
		c-2.365,0.006-4.753,0.166-7.091-0.097c-5.126-0.575-10.267-0.398-15.398-0.618C179.957,672.644,176.271,672.342,172.583,672.104z"
		/>
	<path fill="#8F9CBA" d="M168.887,671.807c0.668,0.09,1.335,0.18,1.999,0.269C170.217,671.985,169.552,671.896,168.887,671.807z"/>
	<path fill="#8F9CBA" d="M68.531,558.652c-0.4,0.203-0.799,0.406-1.199,0.609C67.733,559.057,68.132,558.855,68.531,558.652z"/>
	<path fill="#C1C7DC" d="M474.051,662.684c-3.491-0.036-6.983-0.146-10.473-0.086c-2.977,0.051-5.949,0.356-8.927,0.445
		c-8.839,0.265-17.694,0.242-26.515,0.791c-6.685,0.416-13.378,0.133-20.039,0.585c-7.916,0.537-15.849,0.143-23.742,0.649
		c-8.743,0.561-17.494,0.087-26.215,0.594c-11.106,0.645-22.224,0.116-33.315,0.62c-17.691,0.804-35.391,0.082-53.073,0.623
		c-17.797,0.545-35.59,0.279-53.384,0.389c-1.131,0.007-2.265-0.011-3.392-0.09c-0.34-0.024-0.664-0.29-1.464-0.665
		c1.081-0.303,1.65-0.479,2.227-0.622c4.794-1.187,9.595-2.346,14.379-3.568c1.181-0.302,2.311-0.803,3.464-1.212
		c0.384-0.032,0.767-0.064,1.15-0.096c0.654-0.127,1.309-0.254,1.963-0.381c2.721-0.104,5.442-0.202,8.162-0.328
		c0.144-0.007,0.276-0.245,0.603-0.553c-0.555-0.173-0.989-0.309-1.424-0.445c0.746-0.796,1.751-1.029,2.751-1.294
		c1.692-0.449,3.383-0.902,5.061-1.399c3.262-0.966,6.517-1.945,9.985-1.716c0.305,0.02,0.615-0.044,0.924-0.063
		c5.645-0.35,11.289-0.74,16.937-1.039c5.651-0.299,11.307-0.506,16.961-0.757c0.308-0.014,0.615-0.062,0.923-0.085
		c4.615-0.342,9.229-0.696,13.846-1.021c3.9-0.274,7.808-0.446,11.702-0.784c5.738-0.498,11.466-1.099,17.198-1.666
		c1.945-0.192,3.888-0.408,5.831-0.623c4.601-0.51,9.205-1.003,13.802-1.546c4.291-0.506,8.575-1.08,12.864-1.602
		c3.88-0.472,7.765-0.908,11.646-1.38c0.389-0.047,0.808-0.189,0.702-0.904c-0.56-0.051-1.163-0.164-1.763-0.15
		c-5.348,0.122-10.69-0.038-16.047,0.411c-6.145,0.515-12.338,0.212-18.507,0.7c-5.328,0.422-10.688,0.226-16.041,0.552
		c-7.492,0.457-15.021,0.152-22.526,0.7c-3.383,0.247-6.796,0.067-10.193,0.152c-2.054,0.051-4.104,0.277-6.158,0.355
		c-2.469,0.094-4.94,0.122-7.411,0.161c-0.377,0.006-0.756-0.089-1.449-0.177c0.803-0.806,1.589-1.029,2.318-1.314
		c2.302-0.9,4.646-1.696,6.919-2.661c7.77-3.3,15.522-6.641,23.267-9.999c1.728-0.749,3.485-1.212,5.378-1.214
		c1.647-0.002,3.302-0.007,4.939-0.16c6.145-0.574,12.285-1.197,18.424-1.831c1.74-0.18,3.473-0.432,5.2-0.707
		c0.575-0.092,1.121-0.362,2.086-0.687c-0.712-0.385-1.024-0.676-1.365-0.716c-1.02-0.118-2.051-0.177-3.078-0.187
		c-5.047-0.052-10.093-0.068-15.14-0.131c-0.667-0.008-1.462,0.279-2.072-0.672c0.465-0.329,0.903-0.724,1.411-0.984
		c2.475-1.267,5.026-2.396,7.441-3.766c3.239-1.837,6.702-2.529,10.366-2.55c1.337-0.008,2.675-0.104,4.009-0.198
		c4.719-0.331,9.435-0.71,14.155-1.012c4.517-0.289,9.039-0.505,13.559-0.756c0.205-0.011,0.409-0.05,0.614-0.065
		c4.718-0.349,9.435-0.711,14.154-1.038c4.003-0.277,8.01-0.492,12.012-0.77c2.873-0.199,5.743-0.439,8.612-0.691
		c3.586-0.315,7.166-0.692,10.753-0.986c3.588-0.294,7.183-0.51,10.774-0.775c2.769-0.205,5.539-0.416,8.305-0.654
		c4.201-0.362,8.399-0.762,12.6-1.12c1.196-0.102,2.367-0.229,3.409-0.968c-1.044-0.215-2.06-0.217-3.077-0.215
		c-9.985,0.026-19.969-0.07-29.948,0.522c-6.16,0.365-12.338,0.158-18.515,0.517c-6.772,0.393-13.572,0.471-20.358,0.77
		c-7.093,0.313-14.193,0.496-21.289,0.743c-0.514,0.018-1.024,0.115-1.538,0.135c-3.494,0.136-6.989,0.273-10.485,0.37
		c-0.324,0.009-0.656-0.258-1.308-0.533c2.608-1.738,4.945-3.217,7.193-4.821c1.404-1.003,2.874-1.441,4.597-1.462
		c12.352-0.157,24.702-0.376,37.054-0.564c2.781-0.042,5.562-0.036,8.342-0.06c0.824-0.007,1.651,0,2.468-0.083
		c0.34-0.034,0.658-0.285,1.28-0.574c-1.415-0.799-2.626-0.938-3.832-1.105c-1.121-0.155-2.239-0.337-3.359-0.497
		c-1.223-0.174-2.447-0.339-3.671-0.503c-1.122-0.151-2.246-0.29-3.368-0.443c-1.223-0.167-2.446-0.341-3.668-0.517
		c-1.121-0.161-2.235-0.398-3.361-0.479c-2.34-0.168-2.34-0.155-3.304-0.873c0.16-0.108,0.311-0.291,0.482-0.313
		c3.879-0.485,7.768-0.896,11.638-1.438c3.77-0.528,7.523-1.178,11.28-1.8c0.358-0.059,0.873-0.121,0.669-0.922
		c-0.52-0.074-1.101-0.222-1.685-0.232c-9.571-0.156-19.145-0.017-28.713-0.556c-4.724-0.266-9.473-0.071-14.211-0.09
		c-1.648-0.007-3.296-0.036-4.943-0.048c-1.059-0.008-2.008-0.295-2.895-0.905c-2.291-1.575-4.62-3.094-6.914-4.664
		c-0.283-0.194-0.445-0.565-0.835-1.08c0.837-0.075,1.337-0.163,1.836-0.156c3.295,0.046,6.593,0.038,9.884,0.19
		c6.37,0.292,12.733,0.718,19.103,1.011c4.316,0.198,8.633,0.233,12.953,0.507c6.875,0.436,13.781,0.268,20.671,0.705
		c6.364,0.404,12.75,0.152,19.134,0.513c7.29,0.412,14.62,0.127,21.932,0.125c0.331,0,0.889,0.096,0.761-0.76
		c-0.753-0.113-1.547-0.273-2.349-0.342c-1.025-0.088-2.059-0.071-3.085-0.152c-4.921-0.391-9.84-0.8-14.76-1.204
		c-0.513-0.042-1.025-0.099-1.537-0.146c-3.687-0.336-7.372-0.698-11.061-1c-3.486-0.286-6.979-0.481-10.465-0.771
		c-3.792-0.315-7.575-0.746-11.369-1.029c-4.206-0.313-8.42-0.513-12.631-0.766c-0.411-0.025-0.82-0.077-1.231-0.107
		c-4.615-0.344-9.228-0.722-13.846-1.018c-4.62-0.297-9.245-0.511-13.868-0.763c-0.205-0.011-0.409-0.045-0.615-0.06
		c-4.512-0.345-9.024-0.684-13.535-1.034c-2.666-0.207-5.335-0.391-7.994-0.668c-0.8-0.083-1.623-0.34-2.348-0.694
		c-3.609-1.761-7.192-3.576-10.774-5.39c-0.346-0.175-0.758-0.404-0.438-1.127c0.806-0.052,1.704-0.151,2.603-0.161
		c4.429-0.048,8.857-0.074,13.286-0.105c1.715-0.012,3.392-0.214,5.079-0.774c-0.519-0.974-1.315-0.851-1.995-0.933
		c-2.553-0.31-5.113-0.57-7.667-0.874c-6.232-0.741-12.462-1.491-18.743-1.695c-3.336-0.109-6.536-0.764-9.512-2.346
		c-0.726-0.386-1.486-0.712-2.247-1.028c-8.654-3.587-17.313-7.166-25.966-10.755c-0.436-0.181-0.838-0.443-1.272-0.676
		c0.514-0.848,1.193-0.575,1.746-0.573c3.705,0.008,7.401,0.249,11.1,0.419c7.81,0.359,15.638,0.204,23.454,0.701
		c5.747,0.365,11.513,0.165,17.279,0.527c8.931,0.561,17.896,0.583,26.847,0.838c1.235,0.035,2.483-0.013,3.701,0.153
		c4.824,0.657,9.667,0.291,14.501,0.356c0.375,0.005,0.852-0.045,0.788-0.761c-1.195-0.625-2.577-0.394-3.874-0.571
		c-5.811-0.791-11.627-1.549-17.449-2.249c-6.027-0.725-12.059-1.404-18.096-2.041c-5.932-0.626-11.872-1.187-17.811-1.749
		c-2.97-0.281-5.945-0.506-8.918-0.749c-4.202-0.345-8.401-0.748-12.609-1.008c-5.134-0.317-10.276-0.512-15.414-0.761
		c-0.206-0.01-0.411-0.032-0.616-0.044c-6.263-0.365-12.526-0.738-18.789-1.091c-4.314-0.243-8.63-0.45-12.944-0.694
		c-0.613-0.035-1.233-0.135-1.825-0.296c-3.675-1.005-7.344-2.029-11.009-3.069c-0.35-0.099-0.853-0.126-0.84-0.736
		c0.277-0.269,0.568-0.551,0.858-0.834c-0.758-0.183-1.508-0.469-2.276-0.527c-1.489-0.112-2.987-0.095-4.481-0.13
		c-1.191-0.585-2.447-0.522-3.712-0.371c-0.417-0.04-0.833-0.081-1.25-0.121c-0.456-0.111-0.912-0.221-1.369-0.332
		c-0.348-0.027-0.696-0.053-1.045-0.079c-0.909-0.987-2.201-1.064-3.379-1.355c-4.394-1.087-8.804-2.109-13.203-3.177
		c-0.545-0.132-1.059-0.397-1.531-1.03c0.659-0.063,1.319-0.176,1.978-0.179c4.425-0.02,8.85-0.022,13.275-0.02
		c14.201,0.006,28.413-0.336,42.6,0.114c17.283,0.549,34.573-0.016,51.839,0.621c10.699,0.395,21.405,0.023,32.08,0.594
		c8.949,0.479,17.907,0.089,26.831,0.621c7.405,0.441,14.82,0.111,22.2,0.605c6.89,0.461,13.791,0.136,20.656,0.618
		c6.272,0.441,12.555,0.158,18.804,0.605c6.065,0.433,12.137,0.244,18.186,0.64c3.698,0.242,7.389,0.43,11.09,0.457
		c1.125,0.008,2.252-0.131,3.378-0.204c0.378,0.009,0.757,0.019,1.135,0.03c1.063,0.843,2.334,0.655,3.555,0.715
		c5.339,0.262,10.683,0.462,16.017,0.807c3.485,0.225,6.954,0.706,10.437,0.983c1.738,0.138,3.491,0.075,5.238,0.102
		c0.2,0.014,0.399,0.029,0.599,0.044c0.894,0.193,1.779,0.479,2.683,0.562c3.269,0.301,6.547,0.502,9.817,0.798
		c5.824,0.528,11.641,1.129,17.466,1.641c5.825,0.512,11.658,0.946,17.486,1.427c2.045,0.169,4.09,0.342,6.127,0.58
		c0.695,0.081,1.366,0.363,2.048,0.553l-0.016,0.02c-1.235,0.021-2.471,0.081-3.705,0.056c-5.759-0.117-11.512-0.2-17.273-0.5
		c-9.448-0.492-18.924-0.175-28.389-0.632c-7.19-0.347-14.411-0.083-21.617-0.08c-0.925,0-1.854,0.021-2.771,0.128
		c-0.319,0.037-0.605,0.362-1.296,0.805c1.081,0.317,1.729,0.634,2.397,0.682c3.794,0.274,7.593,0.489,11.391,0.716
		c4.312,0.257,8.624,0.503,12.936,0.759c0.308,0.018,0.612,0.083,0.92,0.107c4.201,0.337,8.402,0.683,12.605,1.002
		c3.691,0.281,7.387,0.502,11.077,0.804c3.791,0.31,7.574,0.709,11.365,1.023c3.382,0.28,6.77,0.487,10.153,0.746
		c2.46,0.189,4.921,0.385,7.376,0.623c3.274,0.318,6.541,0.721,9.818,1.014c3.38,0.302,6.769,0.501,10.151,0.774
		c2.973,0.24,5.943,0.51,8.913,0.786c3.48,0.323,6.957,0.691,10.439,0.995c3.278,0.286,6.563,0.496,9.842,0.771
		c2.561,0.215,5.118,0.483,7.678,0.718c3.685,0.338,7.371,0.683,11.058,0.996c3.382,0.287,6.768,0.515,10.149,0.805
		c3.79,0.325,7.574,0.716,11.364,1.031c3.484,0.29,6.975,0.502,10.461,0.776c4.817,0.379,9.633,0.782,14.448,1.178
		c0.615,0.051,1.229,0.121,1.844,0.177c3.583,0.326,7.165,0.676,10.751,0.966c3.587,0.291,7.181,0.502,10.77,0.783
		c2.768,0.217,5.531,0.487,8.296,0.733c3.584,0.319,7.166,0.664,10.753,0.947c3.691,0.291,7.387,0.504,11.079,0.781
		c2.666,0.2,5.329,0.438,7.991,0.682c3.481,0.32,6.956,0.701,10.44,0.986c3.587,0.294,7.182,0.482,10.771,0.759
		c2.973,0.229,5.94,0.526,8.911,0.784c3.79,0.33,7.579,0.663,11.37,0.973c3.485,0.285,6.973,0.524,10.458,0.815
		c3.893,0.325,7.781,0.703,11.674,1.026c3.382,0.281,6.769,0.504,10.151,0.776c2.665,0.214,5.328,0.447,7.989,0.7
		c3.275,0.312,6.545,0.676,9.821,0.979c3.174,0.294,6.358,0.495,9.529,0.816c7.571,0.767,15.137,1.574,22.704,2.379
		c1.738,0.185,3.471,0.423,5.205,0.644c0.092,0.012,0.198,0.085,0.249,0.161c0.025,0.038-0.06,0.15-0.055,0.138
		c-1.248,0.286-2.436,0.558-3.625,0.83c-3.929,0.443-7.859,0.886-11.788,1.328c-1.066-0.11-2.106-0.054-3.069,0.489
		c-0.625,0.025-1.251,0.049-1.876,0.074c-0.69-0.175-1.375-0.47-2.073-0.505c-5.035-0.254-10.072-0.476-15.11-0.668
		c-6.993-0.268-13.987-0.501-20.981-0.749c-0.206-0.007-0.411-0.025-0.617-0.038c-5.955-0.352-11.907-0.758-17.866-1.035
		c-4.008-0.187-8.014-0.229-12.025-0.541c-6.048-0.471-12.129-0.525-18.195-0.761c-6.067-0.236-12.133-0.479-18.2-0.719
		c-0.103-0.004-0.206-0.013-0.308-0.02c-5.749-0.352-11.495-0.768-17.248-1.036c-4.316-0.202-8.633-0.191-12.953-0.559
		c-4.708-0.401-9.454-0.228-14.184-0.641c-4.297-0.375-8.629-0.22-12.949-0.59c-4.708-0.403-9.453-0.25-14.184-0.637
		c-4.607-0.377-9.247-0.233-13.876-0.61c-4.813-0.392-9.66-0.229-14.493-0.629c-4.607-0.381-9.247-0.229-13.876-0.6
		c-5.018-0.402-10.071-0.228-15.111-0.628c-4.916-0.39-9.865-0.233-14.803-0.615c-5.122-0.396-10.277-0.255-15.421-0.605
		c-6.153-0.419-12.338-0.212-18.511-0.643c-6.153-0.429-12.337-0.257-18.513-0.571c-9.246-0.47-18.52-0.415-27.781-0.642
		c-14.618-0.358-29.25-0.169-43.876-0.244c-1.951-0.01-3.9-0.258-5.852-0.303c-2.365-0.054-4.733-0.051-7.098,0.005
		c-1.952,0.046-3.901,0.287-5.853,0.297c-9.373,0.049-18.746,0.046-28.119,0.073c-1.027,0.003-2.057,0.049-3.081,0.137
		c-0.223,0.019-0.424,0.3-0.656,0.477c0.244,0.22,0.374,0.442,0.527,0.46c2.247,0.258,4.492,0.562,6.747,0.711
		c4.517,0.3,9.039,0.511,13.559,0.761c0.308,0.017,0.616,0.053,0.924,0.076c4.924,0.353,9.845,0.752,14.772,1.044
		c5.135,0.305,10.277,0.505,15.415,0.755c0.308,0.015,0.614,0.066,0.922,0.089c4.616,0.337,9.228,0.72,13.848,0.994
		c5.135,0.305,10.277,0.51,15.415,0.759c0.206,0.01,0.411,0.033,0.616,0.046c5.954,0.372,11.906,0.764,17.861,1.108
		c4.622,0.267,9.248,0.475,13.872,0.71c0.205,0.01,0.41,0.041,0.615,0.054c5.44,0.345,10.877,0.753,16.321,1.017
		c6.578,0.319,13.162,0.516,19.743,0.767c0.206,0.008,0.411,0.026,0.617,0.038c5.749,0.349,11.495,0.752,17.248,1.029
		c4.213,0.202,8.426,0.234,12.644,0.535c6.873,0.491,13.777,0.546,20.667,0.798c6.067,0.222,12.134,0.462,18.201,0.695
		c0.206,0.008,0.411,0.031,0.616,0.042c6.264,0.349,12.527,0.738,18.793,1.032c4.008,0.188,8.015,0.237,12.027,0.509
		c5.538,0.375,11.102,0.379,16.653,0.716c6.778,0.411,13.573,0.53,20.36,0.776c0.206,0.008,0.411,0.026,0.617,0.038
		c5.955,0.351,11.908,0.75,17.866,1.038c4.213,0.203,8.427,0.167,12.644,0.546c4.604,0.414,9.247,0.256,13.874,0.65
		c4.298,0.366,8.63,0.221,12.948,0.601c4.4,0.386,8.836,0.233,13.257,0.62c4.4,0.385,8.836,0.212,13.257,0.609
		c4.399,0.395,8.835,0.256,13.257,0.619c4.71,0.387,9.452,0.289,14.184,0.621c7.079,0.496,14.19,0.525,21.285,0.832
		c2.386,0.103,4.762,0.452,7.142,0.688c-3.513,0.416-7.006,0.43-10.496,0.54c-1.216,0.038-2.424,0.316-3.636,0.484
		c-0.629,0.014-1.257,0.029-1.885,0.043c-0.489-0.11-0.98-0.325-1.466-0.315c-4.568,0.096-9.136,0.222-13.703,0.36
		c-0.91,0.028-1.818,0.142-2.727,0.217c-3.465,0.001-6.93,0.003-10.395,0.003c-1.781-0.596-3.619-0.722-5.483-0.762
		c-7.922-0.173-15.842-0.048-23.769-0.514c-8.829-0.519-17.693-0.144-26.544-0.652c-8.626-0.495-17.279-0.176-25.928-0.568
		c-12.025-0.546-24.079-0.334-36.123-0.63c-16.469-0.404-32.955-0.256-49.433-0.15c-16.47,0.106-32.946-0.418-49.413,0.49
		c-5.136,0.283-10.297,0.115-15.446,0.16c-1.03,0.009-2.077-0.067-3.085,0.091c-3.48,0.547-6.986,0.372-10.481,0.515
		c-3.905,0.16-7.806,0.417-11.708,0.654c-0.391,0.024-0.83,0.137-0.779,0.774c0.245,0.103,0.51,0.3,0.788,0.319
		c3.079,0.204,6.157,0.458,9.24,0.55c7.302,0.218,14.607-0.016,21.914,0.561c5.632,0.445,11.308,0.17,16.964,0.638
		c4.709,0.39,9.452,0.205,14.185,0.582c5.017,0.399,10.071,0.273,15.108,0.662c4.61,0.356,9.247,0.205,13.876,0.578
		c5.223,0.42,10.483,0.254,15.727,0.644c5.329,0.397,10.688,0.285,16.038,0.588c9.141,0.518,18.309,0.559,27.466,0.79
		c1.647,0.042,3.296,0.023,4.943,0.055c0.544,0.011,1.087,0.094,1.631,0.143c-2.26,0.441-4.51,0.419-6.755,0.519
		c-1.216,0.055-2.423,0.32-3.634,0.49c-5.641,0.164-11.283,0.323-16.924,0.499c-0.49,0.015-0.978,0.144-1.61,0.242
		c0.056,0.72,0.103,1.318,0.148,1.888c2.211,0.797,8.057,1.073,23.284,1.119c0.837,0.278,1.673,0.557,3.064,1.019
		c-0.946,0.084-1.322,0.137-1.698,0.148c-6.684,0.188-13.368,0.042-20.055,0.559c-5.837,0.452-11.718,0.15-17.578,0.639
		c-5.017,0.418-10.068,0.151-15.109,0.574c-5.63,0.472-11.306,0.184-16.958,0.684c-4.193,0.371-8.42,0.192-12.637,0.561
		c-5.117,0.447-10.275,0.212-15.415,0.655c-4.809,0.414-9.655,0.25-14.49,0.578c-7.386,0.501-14.803,0.561-22.208,0.743
		c-4.014,0.099-8.033,0.002-12.046,0.113c-2.256,0.062-4.506,0.355-6.754,0.583c-0.212,0.022-0.397,0.317-0.805,0.666
		c0.613,0.186,0.968,0.369,1.335,0.394c3.283,0.221,6.566,0.479,9.853,0.601c5.14,0.191,10.28,0.323,15.42,0.543
		c10.072,0.43,20.163,0.401,30.246,0.629c14.409,0.326,28.83,0.211,43.244,0.115c14.511-0.097,29.021,0.259,43.534-0.442
		c11.508-0.556,23.044,0.028,34.572-0.602c9.754-0.533,19.545-0.075,29.318-0.66c7.802-0.467,15.629-0.093,23.452-0.562
		c8.826-0.529,17.688-0.239,26.537-0.649c8.117-0.376,16.265-0.071,24.399-0.076c1.028-0.001,2.055-0.067,3.083-0.103
		c0.397,0.008,0.794,0.015,1.191,0.023c1.138,0.632,2.391,0.536,3.621,0.556c3.912,0.066,7.825,0.111,11.737,0.184
		c0.597,0.011,1.192,0.121,1.787,0.185c-4.014,0.475-8.007,0.787-12.005,0.963c-6.578,0.29-13.159,0.494-19.739,0.734
		c-0.206,0.008-0.411,0.025-0.617,0.037c-6.056,0.354-12.11,0.752-18.17,1.047c-3.903,0.19-7.806,0.211-11.714,0.523
		c-5.943,0.476-11.919,0.542-17.881,0.774c-6.168,0.24-12.336,0.471-18.504,0.707c-0.206,0.008-0.411,0.031-0.616,0.042
		c-6.571,0.363-13.14,0.772-19.714,1.074c-6.577,0.302-13.159,0.496-19.739,0.738c-0.206,0.008-0.411,0.027-0.617,0.039
		c-6.057,0.352-12.111,0.745-18.17,1.042c-4.109,0.201-8.218,0.212-12.332,0.528c-6.355,0.488-12.743,0.547-19.117,0.787
		c-6.168,0.232-12.336,0.462-18.505,0.694c-0.206,0.008-0.411,0.031-0.616,0.042c-6.469,0.353-12.936,0.738-19.406,1.045
		c-4.006,0.19-8.013,0.231-12.024,0.499c-5.639,0.376-11.305,0.398-16.957,0.73c-6.674,0.392-13.364,0.519-20.047,0.762
		c-0.308,0.011-0.616,0.044-0.924,0.062c-6.262,0.359-12.523,0.749-18.787,1.066c-5.65,0.285-11.305,0.49-16.958,0.731
		c-0.206,0.009-0.411,0.033-0.616,0.046c-5.849,0.368-11.697,0.762-17.549,1.094c-4.929,0.28-9.863,0.486-14.794,0.726
		c-0.205,0.01-0.41,0.042-0.615,0.056c-4.923,0.353-9.843,0.747-14.769,1.045c-4.928,0.298-9.862,0.498-14.793,0.743
		c-0.206,0.01-0.41,0.036-0.616,0.051c-5.026,0.354-10.049,0.75-15.078,1.05c-5.031,0.3-10.068,0.503-15.102,0.752
		c-0.308,0.015-0.615,0.059-0.922,0.085c-4.099,0.339-8.197,0.681-12.296,1.015c-2.869,0.234-5.741,0.447-8.609,0.698
		c-0.365,0.032-0.868,0.049-0.803,0.83c0.309,0.091,0.668,0.271,1.034,0.289c1.131,0.054,2.264,0.06,3.397,0.061
		c15.652,0.017,31.304,0.125,46.955,0.019c15.644-0.105,31.291,0.312,46.932-0.531c8.524-0.459,17.074,0.021,25.616-0.588
		c6.765-0.482,13.572-0.127,20.36-0.644c5.635-0.429,11.304-0.134,16.964-0.584c5.632-0.448,11.306-0.2,16.96-0.664
		c4.607-0.378,9.245-0.218,13.874-0.573c6.457-0.496,12.949-0.533,19.427-0.765c6.58-0.236,13.16-0.472,19.74-0.709
		c0.206-0.008,0.411-0.023,0.617-0.035c5.953-0.349,11.905-0.744,17.861-1.033c4.211-0.205,8.424-0.193,12.641-0.536
		c5.942-0.484,11.919-0.532,17.881-0.761c6.374-0.244,12.748-0.481,19.122-0.722c0.206-0.008,0.411-0.028,0.616-0.04
		c6.262-0.355,12.522-0.764,18.787-1.049c6.886-0.313,13.777-0.512,20.666-0.762c0.206-0.008,0.411-0.025,0.617-0.037
		c6.159-0.355,12.316-0.77,18.479-1.049c6.989-0.317,13.983-0.513,20.975-0.764c0.309-0.011,0.616-0.041,0.925-0.058
		c6.16-0.349,12.317-0.753,18.479-1.033c6.783-0.307,13.571-0.502,20.357-0.741c0.934-0.033,1.858-0.083,2.622-0.723
		c0.805,0.045,1.61,0.09,2.415,0.135c1.587,0.785,3.291,0.636,4.978,0.622c4.103,0.439,8.205,0.878,12.308,1.318
		c0.845,0.279,1.691,0.559,3.054,1.01c-3.556,0.366-6.588,0.668-9.618,0.992c-5.111,0.547-10.216,1.144-15.33,1.654
		c-5.115,0.51-10.237,0.945-15.357,1.405c-4.299,0.386-8.6,0.766-12.9,1.14c-2.97,0.258-5.943,0.486-8.912,0.756
		c-3.583,0.326-7.16,0.719-10.745,1.015c-3.586,0.295-7.18,0.487-10.768,0.759c-2.768,0.21-5.532,0.464-8.296,0.716
		c-3.583,0.327-7.161,0.705-10.746,0.998c-3.586,0.293-7.181,0.487-10.768,0.763c-4.919,0.378-9.836,0.789-14.753,1.195
		c-2.971,0.245-5.941,0.504-8.911,0.767c-3.788,0.335-7.574,0.702-11.364,1.013c-3.484,0.285-6.973,0.5-10.458,0.772
		c-2.664,0.208-5.325,0.461-7.988,0.69c-3.994,0.342-7.987,0.694-11.983,1.015c-3.484,0.28-6.972,0.514-10.457,0.787
		c-2.562,0.201-5.122,0.425-7.682,0.652c-3.788,0.336-7.574,0.707-11.364,1.019c-3.484,0.287-6.973,0.505-10.458,0.776
		c-2.562,0.199-5.122,0.422-7.681,0.659c-3.582,0.331-7.161,0.699-10.743,1.025c-4.197,0.382-8.395,0.744-12.594,1.102
		c-3.176,0.271-6.353,0.522-9.529,0.781c-3.279,0.267-6.56,0.507-9.836,0.807c-3.275,0.3-6.542,0.7-9.818,0.985
		c-3.38,0.294-6.768,0.48-10.15,0.753c-2.664,0.215-5.323,0.487-7.984,0.737c-3.582,0.336-7.161,0.702-10.746,1.005
		c-3.381,0.286-6.768,0.494-10.15,0.759c-2.664,0.209-5.327,0.443-7.989,0.685c-3.583,0.326-7.16,0.719-10.746,0.996
		c-3.895,0.301-7.799,0.486-11.696,0.754c-2.974,0.205-5.945,0.46-8.917,0.693c-4.508,0.354-9.014,0.748-13.526,1.052
		c-4.308,0.291-8.623,0.488-12.934,0.729c-0.205,0.011-0.433,0.002-0.606,0.089c-0.296,0.15-0.557,0.369-1.228,0.833
		c2.83,0.382,5.145,0.736,7.507,0.721c5.245-0.034,10.484-0.172,15.728-0.372c11.408-0.433,22.84,0.166,34.25-0.686
		c3.483-0.26,6.997-0.088,10.496-0.149c1.232-0.022,2.461-0.172,3.693-0.224c2.67-0.112,5.341-0.241,8.013-0.265
		c0.681-0.006,1.365,0.354,2.048,0.545c-0.212,0.013-0.423,0.025-0.634,0.038c-2.065-0.03-4.157-0.35-6.13,0.584
		c-0.225,0.016-0.451,0.031-0.676,0.047c-1.866-0.059-3.749-0.297-5.53,0.528c-0.425,0.026-0.85,0.053-1.275,0.079
		c-1.863-0.048-3.746-0.297-5.527,0.527c-0.628,0.038-1.255,0.076-1.882,0.114c-1.666-0.09-3.341-0.255-4.925,0.488
		c-0.424,0.028-0.849,0.056-1.272,0.084c-1.864-0.034-3.747-0.269-5.534,0.517c-0.826,0.052-1.653,0.103-2.479,0.154
		c-1.466-0.091-2.939-0.243-4.324,0.45c-0.827,0.052-1.654,0.103-2.481,0.155c-3.961-0.197-7.862,0.262-11.727,1.093
		c-0.828,0.051-1.657,0.102-2.485,0.153c-1.664-0.092-3.337-0.258-4.918,0.488c-0.629,0.037-1.257,0.074-1.886,0.11
		c-1.664-0.073-3.339-0.244-4.923,0.492c-0.626,0.039-1.252,0.079-1.877,0.118c-1.863-0.042-3.745-0.284-5.53,0.516
		c-0.628,0.037-1.256,0.075-1.884,0.112c-1.866-0.05-3.75-0.298-5.545,0.481c-0.417,0.019-0.834,0.039-1.251,0.058
		c-0.396,0.018-0.793,0.036-1.189,0.054c-0.424,0.019-0.848,0.039-1.272,0.058c-1.069-0.163-2.124-0.167-3.132,0.306
		c-1.225,0.052-2.449,0.104-3.674,0.156c-2.281-0.597-4.547-0.886-6.74,0.328C474.84,662.678,474.446,662.681,474.051,662.684z"/>
	<path fill="#8F9CBA" d="M857.175,618.403c-0.764,0.64-1.687,0.69-2.622,0.723c-6.786,0.239-13.574,0.433-20.357,0.741
		c-6.163,0.279-12.32,0.683-18.479,1.033c-0.308,0.018-0.616,0.047-0.925,0.058c-6.992,0.25-13.986,0.447-20.975,0.764
		c-6.163,0.28-12.319,0.694-18.479,1.049c-0.206,0.012-0.411,0.029-0.617,0.037c-6.889,0.25-13.78,0.448-20.666,0.762
		c-6.265,0.285-12.525,0.695-18.787,1.049c-0.206,0.012-0.411,0.032-0.616,0.04c-6.374,0.241-12.748,0.478-19.122,0.722
		c-5.962,0.229-11.94,0.277-17.881,0.761c-4.217,0.344-8.429,0.332-12.641,0.536c-5.956,0.289-11.908,0.684-17.861,1.033
		c-0.206,0.012-0.411,0.028-0.617,0.035c-6.58,0.237-13.16,0.472-19.74,0.709c-6.477,0.233-12.97,0.27-19.427,0.765
		c-4.629,0.355-9.267,0.195-13.874,0.573c-5.654,0.464-11.328,0.216-16.96,0.664c-5.659,0.45-11.329,0.155-16.964,0.584
		c-6.788,0.517-13.595,0.162-20.36,0.644c-8.541,0.609-17.091,0.128-25.616,0.588c-15.641,0.843-31.289,0.426-46.932,0.531
		c-15.651,0.106-31.304-0.002-46.955-0.019c-1.132-0.001-2.266-0.007-3.397-0.061c-0.366-0.018-0.725-0.198-1.034-0.289
		c-0.065-0.781,0.438-0.798,0.803-0.83c2.868-0.25,5.739-0.464,8.609-0.698c4.099-0.334,8.197-0.676,12.296-1.015
		c0.308-0.026,0.614-0.07,0.922-0.085c5.034-0.249,10.071-0.452,15.102-0.752c5.029-0.3,10.052-0.696,15.078-1.05
		c0.205-0.014,0.41-0.04,0.616-0.051c4.931-0.244,9.865-0.445,14.793-0.743c4.926-0.297,9.846-0.692,14.769-1.045
		c0.205-0.015,0.41-0.046,0.615-0.056c4.931-0.24,9.865-0.447,14.794-0.726c5.852-0.332,11.699-0.726,17.549-1.094
		c0.206-0.013,0.41-0.037,0.616-0.046c5.653-0.241,11.307-0.446,16.958-0.731c6.264-0.317,12.525-0.707,18.787-1.066
		c0.308-0.018,0.616-0.05,0.924-0.062c6.683-0.244,13.373-0.37,20.047-0.762c5.652-0.332,11.318-0.354,16.957-0.73
		c4.01-0.268,8.017-0.309,12.024-0.499c6.471-0.307,12.938-0.692,19.406-1.045c0.206-0.011,0.411-0.035,0.616-0.042
		c6.168-0.232,12.336-0.462,18.505-0.694c6.374-0.24,12.762-0.299,19.117-0.787c4.114-0.316,8.223-0.327,12.332-0.528
		c6.059-0.297,12.114-0.69,18.17-1.042c0.206-0.012,0.411-0.031,0.617-0.039c6.58-0.242,13.162-0.436,19.739-0.738
		c6.574-0.302,13.143-0.711,19.714-1.074c0.206-0.011,0.411-0.034,0.616-0.042c6.168-0.236,12.336-0.467,18.504-0.707
		c5.962-0.232,11.938-0.298,17.881-0.774c3.908-0.313,7.811-0.334,11.714-0.523c6.059-0.295,12.113-0.693,18.17-1.047
		c0.206-0.012,0.411-0.03,0.617-0.037c6.58-0.241,13.161-0.444,19.739-0.734c3.998-0.177,7.991-0.488,12.005-0.963
		c-0.596-0.064-1.191-0.174-1.787-0.185c-3.912-0.072-7.825-0.118-11.737-0.184c-1.23-0.021-2.483,0.076-3.621-0.556
		c0.901-0.128,1.806-0.383,2.703-0.359c2.875,0.076,5.746,0.285,8.62,0.388c4.415,0.158,8.825,0.096,13.246,0.524
		c5.31,0.514,10.67,0.538,16.01,0.721c2.467,0.085,4.938,0.035,7.407,0.06c2.98,0.029,5.96-0.062,8.926,0.436
		c1.205,0.202,2.463,0.109,3.697,0.11c21.297,0.026,42.593,0.044,63.89,0.068c1.115,0.001,2.23,0.037,3.341,0.433
		c-0.686,0.023-1.372,0.051-2.058,0.069c-4.415,0.116-8.846-0.231-13.237,0.556c-0.8,0.143-1.642,0.057-2.465,0.063
		c-4.527,0.032-9.054,0.031-13.58,0.105c-1.64,0.027-3.276,0.237-4.915,0.347c-1.128,0.076-2.257,0.162-3.386,0.174
		c-4.012,0.045-8.025,0.023-12.036,0.103c-1.948,0.039-3.893,0.248-5.839,0.38c-0.615,0.042-1.23,0.094-1.846,0.125
		c-0.411,0.021-0.823,0.016-1.234,0.018c-6.168,0.031-12.326,0.231-18.489,0.574c-6.154,0.343-12.305,0.676-18.447,1.194
		c-3.992,0.337-7.997,0.501-11.995,0.773c-3.177,0.216-6.351,0.467-9.524,0.733c-0.263,0.022-0.506,0.277-0.859,0.483
		C856.281,617.333,856.728,617.868,857.175,618.403z"/>
	<path fill="#8F9CBA" d="M850.336,591.339c1.212-0.168,2.42-0.446,3.636-0.484c3.49-0.11,6.983-0.124,10.496-0.54
		c-2.38-0.236-4.756-0.585-7.142-0.688c-7.094-0.308-14.205-0.336-21.285-0.832c-4.732-0.332-9.474-0.234-14.184-0.621
		c-4.422-0.363-8.858-0.224-13.257-0.619c-4.422-0.397-8.858-0.224-13.257-0.609c-4.421-0.387-8.857-0.234-13.257-0.62
		c-4.319-0.379-8.65-0.235-12.948-0.601c-4.626-0.394-9.27-0.236-13.874-0.65c-4.217-0.379-8.431-0.342-12.644-0.546
		c-5.958-0.288-11.911-0.686-17.866-1.038c-0.206-0.012-0.411-0.03-0.617-0.038c-6.788-0.246-13.583-0.365-20.36-0.776
		c-5.551-0.337-11.115-0.341-16.653-0.716c-4.011-0.272-8.019-0.321-12.027-0.509c-6.267-0.294-12.529-0.683-18.793-1.032
		c-0.206-0.011-0.411-0.034-0.616-0.042c-6.067-0.233-12.133-0.473-18.201-0.695c-6.891-0.252-13.794-0.308-20.667-0.798
		c-4.217-0.301-8.431-0.333-12.644-0.535c-5.752-0.276-11.499-0.68-17.248-1.029c-0.206-0.013-0.411-0.03-0.617-0.038
		c-6.581-0.251-13.165-0.448-19.743-0.767c-5.444-0.264-10.881-0.672-16.321-1.017c-0.205-0.013-0.41-0.044-0.615-0.054
		c-4.624-0.236-9.25-0.443-13.872-0.71c-5.955-0.344-11.908-0.736-17.861-1.108c-0.206-0.013-0.411-0.036-0.616-0.046
		c-5.139-0.25-10.28-0.455-15.415-0.759c-4.619-0.274-9.232-0.657-13.848-0.994c-0.308-0.022-0.614-0.074-0.922-0.089
		c-5.139-0.25-10.28-0.45-15.415-0.755c-4.927-0.292-9.848-0.691-14.772-1.044c-0.308-0.022-0.615-0.058-0.924-0.076
		c-4.52-0.25-9.043-0.462-13.559-0.761c-2.255-0.15-4.5-0.453-6.747-0.711c-0.154-0.018-0.284-0.24-0.527-0.46
		c0.232-0.177,0.433-0.458,0.656-0.477c1.023-0.087,2.053-0.134,3.081-0.137c9.373-0.026,18.746-0.023,28.119-0.073
		c1.951-0.01,3.9-0.251,5.853-0.297c2.365-0.055,4.733-0.059,7.098-0.005c1.952,0.045,3.901,0.293,5.852,0.303
		c14.626,0.075,29.257-0.114,43.876,0.244c9.262,0.227,18.535,0.172,27.781,0.642c6.176,0.314,12.36,0.142,18.513,0.571
		c6.173,0.43,12.358,0.223,18.511,0.643c5.144,0.351,10.299,0.209,15.421,0.605c4.937,0.382,9.887,0.225,14.803,0.615
		c5.04,0.4,10.093,0.226,15.111,0.628c4.629,0.371,9.269,0.219,13.876,0.6c4.833,0.4,9.681,0.236,14.493,0.629
		c4.628,0.377,9.269,0.233,13.876,0.61c4.73,0.387,9.475,0.234,14.184,0.637c4.32,0.37,8.652,0.215,12.949,0.59
		c4.73,0.412,9.475,0.239,14.184,0.641c4.32,0.368,8.637,0.358,12.953,0.559c5.753,0.269,11.499,0.684,17.248,1.036
		c0.103,0.006,0.205,0.016,0.308,0.02c6.067,0.24,12.133,0.483,18.2,0.719c6.067,0.236,12.147,0.29,18.195,0.761
		c4.011,0.312,8.018,0.354,12.025,0.541c5.958,0.278,11.911,0.684,17.866,1.035c0.206,0.012,0.411,0.03,0.617,0.038
		c6.994,0.249,13.988,0.482,20.981,0.749c5.038,0.193,10.075,0.414,15.11,0.668c0.698,0.035,1.383,0.33,2.073,0.505
		c-0.946,0.353-1.892,0.706-2.777,1.036c-0.214,0.621,0.139,0.895,0.529,0.96c1.212,0.201,2.433,0.373,3.657,0.468
		c5.02,0.391,10.043,0.749,15.065,1.12c0.102,0.008,0.204,0.027,0.307,0.033c4.414,0.249,8.829,0.49,13.242,0.752
		c1.436,0.085,2.867,0.24,4.302,0.337c1.436,0.097,2.874,0.189,4.313,0.235c3.699,0.118,7.413-0.135,11.092,0.516
		c0.802,0.142,1.643,0.073,2.467,0.08c3.501,0.03,7.002,0.016,10.502,0.092c1.744,0.037,3.484,0.237,5.227,0.353
		c1.026,0.068,2.054,0.15,3.081,0.162c3.603,0.041,7.209,0.002,10.81,0.095c2.566,0.066,5.127,0.3,7.692,0.447
		c0.925,0.053,1.851,0.091,2.777,0.099c3.81,0.031,7.62,0.005,11.428,0.089c1.948,0.043,3.891,0.285,5.837,0.416
		c1.129,0.076,2.26,0.144,3.39,0.154c2.667,0.022,5.333,0.007,8.024,0.383c-0.73,0.047-1.459,0.133-2.189,0.135
		c-4.324,0.007-8.649,0.018-12.973-0.025c-1.332-0.013-2.663-0.2-3.995-0.295c-1.23-0.087-2.461-0.225-3.692-0.225
		c-10.914-0.002-21.841-0.291-32.739,0.135c-9.26,0.361-18.53,0.114-27.768,0.631c-5.968,0.334-11.929,0.293-17.888,0.523
		c-3.697,0.142-7.395,0.404-11.077,0.761C861.855,591.555,856.097,591.424,850.336,591.339z"/>
	<path fill="#8F9CBA" d="M875.695,579.64c1.188-0.272,2.376-0.544,3.625-0.83c-0.005,0.012,0.081-0.1,0.055-0.138
		c-0.051-0.077-0.158-0.15-0.249-0.161c-1.734-0.222-3.467-0.459-5.205-0.644c-7.567-0.805-15.133-1.612-22.704-2.379
		c-3.171-0.321-6.355-0.522-9.529-0.816c-3.276-0.303-6.546-0.667-9.821-0.979c-2.661-0.254-5.325-0.486-7.989-0.7
		c-3.383-0.272-6.769-0.496-10.151-0.776c-3.893-0.323-7.782-0.701-11.674-1.026c-3.484-0.291-6.973-0.53-10.458-0.815
		c-3.791-0.31-7.581-0.643-11.37-0.973c-2.971-0.258-5.938-0.554-8.911-0.784c-3.589-0.277-7.184-0.465-10.771-0.759
		c-3.484-0.285-6.959-0.666-10.44-0.986c-2.662-0.245-5.325-0.482-7.991-0.682c-3.692-0.277-7.389-0.49-11.079-0.781
		c-3.587-0.283-7.169-0.628-10.753-0.947c-2.765-0.246-5.528-0.516-8.296-0.733c-3.588-0.281-7.182-0.492-10.77-0.783
		c-3.586-0.29-7.168-0.641-10.751-0.966c-0.615-0.056-1.228-0.126-1.844-0.177c-4.816-0.396-9.631-0.799-14.448-1.178
		c-3.486-0.274-6.976-0.487-10.461-0.776c-3.79-0.315-7.574-0.706-11.364-1.031c-3.381-0.29-6.768-0.518-10.149-0.805
		c-3.688-0.313-7.373-0.658-11.058-0.996c-2.56-0.235-5.117-0.503-7.678-0.718c-3.279-0.275-6.564-0.485-9.842-0.771
		c-3.482-0.303-6.958-0.672-10.439-0.995c-2.97-0.276-5.94-0.546-8.913-0.786c-3.382-0.273-6.771-0.472-10.151-0.774
		c-3.277-0.293-6.543-0.696-9.818-1.014c-2.456-0.239-4.916-0.435-7.376-0.623c-3.384-0.259-6.771-0.466-10.153-0.746
		c-3.79-0.314-7.574-0.713-11.365-1.023c-3.69-0.301-7.385-0.523-11.077-0.804c-4.203-0.32-8.403-0.665-12.605-1.002
		c-0.308-0.025-0.612-0.089-0.92-0.107c-4.312-0.255-8.624-0.502-12.936-0.759c-3.798-0.226-7.597-0.441-11.391-0.716
		c-0.668-0.048-1.316-0.365-2.397-0.682c0.691-0.444,0.977-0.768,1.296-0.805c0.916-0.107,1.846-0.127,2.771-0.128
		c7.207-0.003,14.427-0.267,21.617,0.08c9.465,0.457,18.942,0.14,28.389,0.632c5.761,0.3,11.515,0.382,17.273,0.5
		c1.234,0.025,2.47-0.035,3.705-0.056c1.993,0.931,4.043,0.545,6.096,0.073c-2.027-0.031-4.054-0.062-6.08-0.093
		c-0.682-0.19-1.353-0.472-2.048-0.553c-2.037-0.237-4.083-0.411-6.127-0.58c-5.828-0.481-11.66-0.915-17.486-1.427
		c-5.825-0.512-11.642-1.113-17.466-1.641c-3.27-0.296-6.548-0.497-9.817-0.798c-0.904-0.083-1.789-0.369-2.683-0.562
		c2.872,0.151,5.746,0.264,8.615,0.463c3.077,0.214,6.15,0.497,9.222,0.77c3.994,0.355,7.985,0.734,11.978,1.093
		c2.56,0.23,5.121,0.453,7.683,0.661c3.28,0.266,6.563,0.487,9.841,0.775c3.277,0.289,6.548,0.646,9.823,0.956
		c2.866,0.271,5.73,0.603,8.602,0.759c6.167,0.336,12.275,1.202,18.407,1.861c3.371,0.362,6.766,0.485,10.146,0.773
		c3.276,0.279,6.546,0.633,9.819,0.953c2.557,0.25,5.112,0.526,7.672,0.738c3.38,0.28,6.767,0.48,10.147,0.769
		c3.685,0.315,7.365,0.696,11.047,1.043c2.353,0.222,4.706,0.455,7.061,0.647c3.381,0.275,6.765,0.508,10.146,0.777
		c2.971,0.236,5.941,0.492,8.91,0.75c4.197,0.365,8.394,0.726,12.589,1.116c3.274,0.305,6.544,0.65,9.816,0.98
		c0.512,0.052,1.021,0.126,1.534,0.171c4.504,0.397,9.006,0.809,13.512,1.176c3.483,0.284,6.974,0.472,10.456,0.772
		c3.276,0.282,6.543,0.66,9.815,0.984c2.454,0.242,4.909,0.489,7.367,0.69c3.38,0.277,6.767,0.485,10.146,0.773
		c3.685,0.315,7.365,0.69,11.048,1.035c2.353,0.221,4.705,0.454,7.061,0.647c3.38,0.277,6.764,0.515,10.145,0.784
		c2.971,0.236,5.941,0.485,8.911,0.741c4.299,0.371,8.6,0.734,12.896,1.137c3.274,0.307,6.541,0.686,9.813,1.004
		c2.864,0.279,5.731,0.538,8.6,0.77c3.478,0.281,6.958,0.525,10.963,0.824c-1.62,0.453-2.744,0.768-3.821,1.069
		c-0.027,0.914,0.55,0.994,1.015,1.05c2.449,0.293,4.903,0.543,7.356,0.801c2.044,0.215,4.09,0.41,6.134,0.633
		c4.904,0.536,9.806,1.084,14.709,1.624c4.496,0.496,8.994,0.966,13.487,1.487c3.88,0.45,7.753,0.972,11.632,1.435
		c4.695,0.56,9.393,1.084,14.089,1.637c1.934,0.228,3.864,0.493,5.84,0.965c-0.48,0.073-0.958,0.177-1.441,0.215
		c-4.608,0.365-9.215,0.762-13.828,1.059C880.225,579.65,877.957,579.601,875.695,579.64z"/>
	<path fill="#8F9CBA" d="M575.935,654.386c-0.683-0.192-1.367-0.551-2.048-0.545c-2.672,0.024-5.343,0.153-8.013,0.265
		c-1.232,0.052-2.461,0.202-3.693,0.224c-3.499,0.061-7.013-0.111-10.496,0.149c-11.41,0.852-22.842,0.253-34.25,0.686
		c-5.245,0.199-10.483,0.337-15.728,0.372c-2.362,0.016-4.677-0.339-7.507-0.721c0.672-0.464,0.932-0.683,1.228-0.833
		c0.173-0.088,0.401-0.078,0.606-0.089c4.311-0.241,8.626-0.439,12.934-0.729c4.512-0.304,9.018-0.698,13.526-1.052
		c2.972-0.233,5.943-0.489,8.917-0.693c3.898-0.268,7.801-0.453,11.696-0.754c3.586-0.277,7.164-0.67,10.746-0.996
		c2.662-0.242,5.324-0.476,7.989-0.685c3.382-0.266,6.769-0.474,10.15-0.759c3.585-0.303,7.164-0.669,10.746-1.005
		c2.661-0.25,5.32-0.522,7.984-0.737c3.382-0.272,6.77-0.459,10.15-0.753c3.276-0.285,6.543-0.685,9.818-0.985
		c3.276-0.301,6.557-0.54,9.836-0.807c3.177-0.259,6.354-0.51,9.529-0.781c4.199-0.358,8.397-0.72,12.594-1.102
		c3.583-0.326,7.161-0.694,10.743-1.025c2.559-0.237,5.119-0.459,7.681-0.659c3.485-0.271,6.974-0.489,10.458-0.776
		c3.79-0.313,7.575-0.683,11.364-1.019c2.56-0.227,5.12-0.451,7.682-0.652c3.485-0.273,6.973-0.507,10.457-0.787
		c3.996-0.321,7.989-0.673,11.983-1.015c2.663-0.228,5.324-0.481,7.988-0.69c3.485-0.272,6.974-0.487,10.458-0.772
		c3.79-0.311,7.576-0.678,11.364-1.013c2.97-0.263,5.94-0.521,8.911-0.767c4.917-0.406,9.833-0.817,14.753-1.195
		c3.588-0.276,7.182-0.47,10.768-0.763c3.585-0.293,7.164-0.671,10.746-0.998c2.764-0.252,5.529-0.506,8.296-0.716
		c3.588-0.272,7.182-0.463,10.768-0.759c3.585-0.295,7.162-0.689,10.745-1.015c2.969-0.27,5.942-0.497,8.912-0.756
		c4.301-0.374,8.601-0.754,12.9-1.14c5.12-0.46,10.242-0.894,15.357-1.405c5.114-0.51,10.22-1.107,15.33-1.654
		c3.03-0.324,6.062-0.626,9.618-0.992c-1.364-0.451-2.209-0.73-3.054-1.01c2.679-0.14,5.34-0.101,8.001,0.368
		c1.307,0.231,2.666,0.211,4.002,0.223c3.185,0.029,6.37,0.009,10.141,0.009c-1.143,0.813-1.916,0.942-2.666,1.044
		c-1.936,0.265-3.879,0.478-5.82,0.708c-6.639,0.785-13.278,1.57-19.917,2.352c-3.984,0.469-7.969,0.935-11.954,1.396
		c-4.904,0.568-9.806,1.147-14.713,1.69c-2.658,0.294-5.325,0.498-7.984,0.782c-3.988,0.426-7.973,0.88-11.956,1.347
		c-0.257,0.03-0.49,0.269-0.902,0.509c1.11,1.209,2.651,0.257,3.867,1.034c-1.256,0.576-2.457,0.706-3.684,0.806
		c-4.304,0.352-8.602,0.759-12.905,1.117c-3.382,0.282-6.77,0.499-10.151,0.788c-3.381,0.289-6.757,0.631-10.134,0.952
		c-2.866,0.272-5.731,0.56-8.599,0.819c-4.505,0.407-9.011,0.815-13.52,1.184c-3.485,0.285-6.978,0.472-10.461,0.772
		c-3.278,0.283-6.547,0.664-9.821,0.988c-2.456,0.243-4.912,0.49-7.371,0.69c-3.383,0.276-6.771,0.479-10.153,0.768
		c-3.688,0.315-7.369,0.695-11.054,1.043c-2.354,0.222-4.708,0.457-7.065,0.649c-3.383,0.275-6.77,0.49-10.152,0.779
		c-3.38,0.289-6.756,0.636-10.133,0.96c-2.559,0.246-5.115,0.525-7.676,0.738c-3.382,0.28-6.771,0.48-10.152,0.77
		c-3.687,0.315-7.369,0.696-11.054,1.044c-2.355,0.222-4.708,0.455-7.065,0.647c-3.383,0.276-6.769,0.508-10.152,0.778
		c-2.973,0.237-5.944,0.494-8.915,0.752c-4.199,0.365-8.399,0.726-12.596,1.116c-3.276,0.305-6.547,0.656-9.822,0.977
		c-2.661,0.261-5.321,0.533-7.986,0.754c-3.28,0.272-6.567,0.452-9.844,0.755c-2.662,0.246-5.308,0.659-7.969,0.92
		c-3.582,0.351-7.171,0.638-10.758,0.927C577.173,654.483,576.552,654.405,575.935,654.386z"/>
	<path fill="#8F9CBA" d="M846.657,608.632c-1.028,0.036-2.055,0.102-3.083,0.103c-8.134,0.006-16.282-0.3-24.399,0.076
		c-8.849,0.41-17.712,0.12-26.537,0.649c-7.823,0.469-15.651,0.095-23.452,0.562c-9.773,0.585-19.564,0.127-29.318,0.66
		c-11.528,0.63-23.064,0.046-34.572,0.602c-14.513,0.701-29.023,0.345-43.534,0.442c-14.415,0.096-28.836,0.211-43.244-0.115
		c-10.083-0.228-20.174-0.198-30.246-0.629c-5.14-0.22-10.28-0.352-15.42-0.543c-3.288-0.122-6.57-0.38-9.853-0.601
		c-0.366-0.025-0.722-0.208-1.335-0.394c0.409-0.349,0.593-0.644,0.805-0.666c2.249-0.227,4.499-0.52,6.754-0.583
		c4.013-0.111,8.032-0.014,12.046-0.113c7.405-0.182,14.822-0.242,22.208-0.743c4.835-0.328,9.681-0.164,14.49-0.578
		c5.14-0.443,10.298-0.208,15.415-0.655c4.217-0.369,8.444-0.189,12.637-0.561c5.652-0.5,11.328-0.212,16.958-0.684
		c5.042-0.423,10.093-0.155,15.109-0.574c5.86-0.489,11.74-0.187,17.578-0.639c6.687-0.518,13.371-0.372,20.055-0.559
		c0.376-0.011,0.752-0.064,1.698-0.148c-1.391-0.463-2.228-0.741-3.064-1.019c4.626-0.124,9.237-0.2,13.855,0.427
		c3.556,0.484,7.167,0.563,10.754,0.83c4.609,0.343,9.218,0.692,13.826,1.041c0.307,0.023,0.613,0.082,0.921,0.097
		c4.824,0.244,9.648,0.481,14.471,0.725c1.027,0.052,2.053,0.113,3.078,0.188c1.741,0.127,3.479,0.329,5.222,0.389
		c2.773,0.095,5.56-0.06,8.304,0.51c0.2,0.042,0.409,0.042,0.615,0.05c6.06,0.237,12.12,0.456,18.178,0.715
		c2.565,0.11,5.125,0.31,7.688,0.458c0.924,0.053,1.85,0.079,2.775,0.107c5.548,0.168,11.096-0.016,16.649,0.49
		c4.085,0.372,8.226,0.117,12.341,0.157C844.26,608.119,845.513,608.018,846.657,608.632z"/>
	<path fill="#8F9CBA" d="M709.456,598.175c1.211-0.17,2.418-0.435,3.634-0.49c2.245-0.101,4.496-0.078,6.755-0.519
		c-0.544-0.05-1.087-0.133-1.631-0.143c-1.647-0.032-3.296-0.013-4.943-0.055c-9.157-0.231-18.325-0.273-27.466-0.79
		c-5.35-0.303-10.709-0.192-16.038-0.588c-5.245-0.39-10.505-0.224-15.727-0.644c-4.629-0.373-9.266-0.222-13.876-0.578
		c-5.037-0.389-10.091-0.263-15.108-0.662c-4.733-0.377-9.476-0.192-14.185-0.582c-5.656-0.468-11.332-0.194-16.964-0.638
		c-7.306-0.577-14.611-0.343-21.914-0.561c-3.083-0.092-6.161-0.345-9.24-0.55c-0.277-0.018-0.543-0.216-0.788-0.319
		c-0.051-0.637,0.388-0.75,0.779-0.774c3.902-0.237,7.803-0.495,11.708-0.654c3.495-0.143,7.001,0.032,10.481-0.515
		c1.008-0.159,2.056-0.082,3.085-0.091c5.149-0.045,10.31,0.123,15.446-0.16c16.466-0.908,32.942-0.383,49.413-0.49
		c16.478-0.106,32.964-0.254,49.433,0.15c12.044,0.295,24.098,0.084,36.123,0.63c8.649,0.392,17.302,0.073,25.928,0.568
		c8.851,0.508,17.716,0.133,26.544,0.652c7.928,0.466,15.847,0.341,23.769,0.514c1.864,0.041,3.702,0.167,5.483,0.762
		c-0.729,0.935-1.778,0.921-2.809,0.935c-2.364,0.032-4.736-0.066-7.09,0.097c-6.655,0.459-13.34,0.343-19.979,1.07
		c-0.204,0.022-0.41,0.036-0.615,0.044c-5.949,0.242-11.902,0.424-17.847,0.741c-4.814,0.257-9.619,0.675-14.428,1.024
		c-0.307,0.022-0.613,0.074-0.92,0.09c-4.612,0.244-9.228,0.433-13.836,0.74c-3.889,0.259-7.776,0.586-11.651,1.006
		C723.824,598.168,716.654,598.51,709.456,598.175z"/>
	<path fill="#8F9CBA" d="M512.921,540.097c-1.746-0.028-3.5,0.036-5.238-0.102c-3.483-0.277-6.951-0.758-10.437-0.983
		c-5.334-0.345-10.678-0.545-16.017-0.807c-1.221-0.06-2.492,0.128-3.555-0.715c1.911-0.705,3.87-0.376,5.807-0.226
		c3.794,0.294,7.581,0.673,11.373,0.991c5.433,0.454,10.869,0.873,16.301,1.342C511.754,539.648,512.333,539.925,512.921,540.097z"
		/>
	<path fill="#8F9CBA" d="M830.553,591.644c0.909-0.075,1.817-0.189,2.727-0.217c4.567-0.138,9.135-0.264,13.703-0.36
		c0.487-0.01,0.978,0.205,1.466,0.315c-0.785,0.181-1.567,0.506-2.355,0.52c-4.483,0.079-8.967,0.101-13.451,0.097
		C831.948,591.998,831.25,591.768,830.553,591.644z"/>
	<path fill="#8F9CBA" d="M475.234,662.675c2.193-1.213,4.459-0.925,6.74-0.328C479.771,663.369,477.511,663.192,475.234,662.675z"/>
	<path fill="#8F9CBA" d="M521.538,659.244c3.866-0.832,7.766-1.291,11.727-1.093c-0.281,0.117-0.555,0.316-0.842,0.337
		C528.796,658.756,525.208,659.596,521.538,659.244z"/>
	<path fill="#8F9CBA" d="M864.568,619.161c-1.687,0.013-3.391,0.162-4.978-0.622C861.349,617.953,862.965,618.508,864.568,619.161z"
		/>
	<path fill="#8F9CBA" d="M569.17,655.007c1.973-0.934,4.066-0.614,6.13-0.584C573.325,655.335,571.231,654.999,569.17,655.007z"/>
	<path fill="#8F9CBA" d="M562.964,655.582c1.782-0.825,3.665-0.587,5.53-0.528C566.715,655.901,564.828,655.625,562.964,655.582z"/>
	<path fill="#8F9CBA" d="M556.162,656.188c1.781-0.824,3.663-0.575,5.527-0.527C559.911,656.513,558.026,656.237,556.162,656.188z"
		/>
	<path fill="#8F9CBA" d="M542.549,657.392c1.788-0.786,3.671-0.55,5.534-0.517C546.302,657.734,544.417,657.473,542.549,657.392z"/>
	<path fill="#8F9CBA" d="M499.919,661.122c1.785-0.8,3.667-0.558,5.53-0.516C503.669,661.452,501.785,661.185,499.919,661.122z"/>
	<path fill="#8F9CBA" d="M492.491,661.715c1.795-0.779,3.679-0.531,5.545-0.481C496.246,662.07,494.361,661.802,492.491,661.715z"/>
	<path fill="#8F9CBA" d="M549.356,656.791c1.584-0.743,3.258-0.578,4.925-0.488C552.699,657.077,551.023,656.887,549.356,656.791z"
		/>
	<path fill="#8F9CBA" d="M507.327,660.488c1.584-0.737,3.259-0.565,4.923-0.492C510.67,660.779,508.994,660.592,507.327,660.488z"/>
	<path fill="#8F9CBA" d="M514.135,659.885c1.582-0.746,3.254-0.579,4.918-0.488C517.473,660.162,515.8,659.979,514.135,659.885z"/>
	<path fill="#8F9CBA" d="M535.746,657.996c1.385-0.693,2.858-0.542,4.324-0.45C538.688,658.265,537.216,658.127,535.746,657.996z"/>
	<path fill="#8F9CBA" d="M860.839,581.457c0.963-0.542,2.003-0.599,3.069-0.489C862.951,581.549,861.911,581.605,860.839,581.457z"
		/>
	<path fill="#8F9CBA" d="M485.647,662.192c1.008-0.473,2.062-0.469,3.132-0.306C487.78,662.445,486.727,662.452,485.647,662.192z"/>
	<path fill="#8F9CBA" d="M490.051,661.827c0.397-0.018,0.793-0.036,1.189-0.054C490.858,662.111,490.462,662.131,490.051,661.827z"
		/>
	<path fill="#6E7BA0" d="M200.027,627.632c1.141,0.412,2.284,0.817,3.421,1.241c0.466,0.174,0.921,0.38,1.372,0.59
		c0.058,0.027,0.062,0.169,0.094,0.271c-0.305,0.742-1,0.576-1.557,0.581c-3.156,0.031-6.313,0.022-9.47,0.018
		c-3.257-0.004-6.515-0.018-9.772-0.028c-0.406-0.017-0.812-0.033-1.217-0.05c-2.21-0.915-4.529-0.551-6.814-0.575
		c-2.373-0.074-4.704-0.222-6.82-1.556c-0.754-0.476-1.75-0.563-2.627-0.852c-6.428-2.124-12.311-5.153-16.979-10.203
		c-2.392-2.588-4.306-5.489-5.737-8.706c-2.051-4.612-2.016-9.372-0.932-14.19c1.501-6.672,4.845-12.141,10.495-16.136
		c8-5.656,16.885-7.756,26.568-6.689c1.427,0.157,2.839,0.454,4.26,0.687c1.021,0.08,2.04,0.221,3.06,0.226
		c6.893,0.038,13.787,0.024,20.68,0.081c1.639,0.014,3.275,0.243,4.914,0.353c1.333,0.09,2.672,0.103,4.001,0.232
		c2.452,0.238,4.901,0.508,7.344,0.827c0.58,0.076,1.129,0.396,2.076,0.746c-0.627,0.39-0.905,0.704-1.21,0.732
		c-5.32,0.479-10.643,0.91-15.964,1.38c-2.651,0.234-5.298,0.525-7.931,0.789c-0.215,0.569,0.195,0.766,0.537,0.949
		c4.258,2.285,8.526,4.553,12.783,6.84c1.681,0.903,3.54,1.027,5.368,1.262c4.178,0.537,8.364,1.008,12.542,1.537
		c2.446,0.31,4.886,0.672,7.326,1.032c0.486,0.072,0.957,0.236,1.352,0.337c0.252,0.769-0.254,0.902-0.605,0.96
		c-1.11,0.185-2.232,0.376-3.353,0.399c-3.085,0.065-6.173,0.037-9.259,0.068c-0.687,0.007-1.373,0.107-2.157,0.172
		c1.474,2.156,4.548,5.165,6.203,6.011c0.626,0.32,1.332,0.569,2.027,0.656c2.037,0.256,4.083,0.455,6.131,0.602
		c3.397,0.244,6.739,0.781,9.999,1.767c0.751,0.227,1.643,0.335,1.948,1.411c-0.475,1.012-1.527,1.268-2.479,1.5
		c-2.196,0.535-4.408,1.046-6.642,1.365c-2.438,0.348-4.906,0.488-7.365,0.677c-0.947,0.073-1.79,0.303-2.59,0.851
		c-2.035,1.393-4.113,2.725-6.174,4.08c-0.254,0.167-0.517,0.322-0.616,0.383c0.11,1.126,0.847,1.147,1.386,1.303
		c2.469,0.717,4.955,1.374,7.433,2.059c0.978,0.271,2.04,0.337,2.812,1.089c0.17,0.673-0.215,1.009-0.733,1.153
		c-2.806,0.782-5.66,1.033-8.554,0.623c-3.154-0.447-6.307-0.902-9.454-1.394c-0.95-0.149-1.84-0.093-2.704,0.327
		c-1.849,0.901-3.703,1.793-5.541,2.717c-0.242,0.122-0.401,0.411-0.735,0.769c1.11,0.661,2.27,0.34,3.31,0.556
		c1.1,0.228,2.241,0.307,3.368,0.341c2.468,0.075,4.938,0.051,7.406,0.13c0.767,0.025,1.658-0.089,2.27,0.965
		c-0.632,0.213-1.178,0.484-1.753,0.576c-1.725,0.274-3.455,0.563-5.195,0.693c-3.995,0.297-7.998,0.499-11.997,0.75
		c-0.923,0.058-1.843,0.162-2.763,0.245c-5.014-0.108-11.375,1.453-12.963,3.268C194.608,626.96,197.195,628.049,200.027,627.632z
		 M208.638,587.253c-1.011-0.453-1.607-0.878-2.254-0.981c-2.434-0.388-4.88-0.734-7.333-0.972
		c-1.841-0.179-3.719-0.031-5.549-0.269c-3.909-0.508-7.806-0.387-11.712-0.092c-0.821,0.062-1.644,0.183-2.464,0.164
		c-3.541-0.085-6.973,0.484-10.329,1.584c-0.585,0.192-1.188,0.367-1.796,0.443c-4.057,0.509-7.368,2.608-10.398,5.11
		c-3.161,2.611-5.108,6.044-4.738,10.239c0.26,2.947,0.958,5.889,1.765,8.747c0.884,3.131,3.072,5.351,6.03,6.654
		c1.778,0.783,3.659,1.487,5.564,1.799c5.499,0.901,11.042,1.258,16.617,0.648c2.145-0.235,4.309-0.457,6.46-0.418
		c2.914,0.052,5.729-0.569,8.582-0.928c0.479-0.06,0.946-0.354,1.377-0.61c0.425-0.253,0.356-1.115-0.101-1.299
		c-0.467-0.189-0.96-0.362-1.456-0.423c-3.064-0.375-6.125-0.8-9.201-1.04c-1.975-0.154-3.643-0.968-5.604-1.761
		c1.013-0.932,1.954-0.667,2.816-0.566c5.157,0.604,10.283,0.109,15.404-0.424c1.116-0.116,2.219-0.444,3.301-0.763
		c0.44-0.13,1.011-0.349,0.779-1.186c-2.374-0.373-4.806-0.676-7.203-1.155c-2.374-0.475-4.843-0.639-7.107-1.687
		c0.198-1.645,1.008-2.362,2.474-2.334c1.235,0.024,2.479-0.014,3.703,0.125c4.335,0.494,8.638-0.128,12.952-0.324
		c0.809-0.037,1.619-0.291,2.4-0.536c0.325-0.102,0.575-0.442,0.908-0.713c-0.341-0.23-0.493-0.408-0.67-0.44
		c-4.864-0.862-9.731-1.712-14.598-2.556c-1.318-0.229-2.646-0.403-3.96-0.655c-0.682-0.131-1.054-0.641-1.068-1.325
		c-0.01-0.482,0.1-0.965,0.172-1.577c1.151-0.178,2.149-0.365,3.155-0.479c0.919-0.105,1.849-0.116,2.771-0.199
		c0.963-0.087,1.994,0.11,3.275-0.67c-0.807-0.336-1.22-0.599-1.667-0.678c-2.633-0.468-5.267-0.931-7.912-1.319
		c-1.86-0.273-2.797-1.379-3.326-2.999c0.336-0.236,0.487-0.427,0.663-0.453c3.155-0.467,6.316-0.891,9.469-1.371
		c2.644-0.403,5.283-0.837,7.912-1.326C207.273,588.138,207.747,587.727,208.638,587.253z"/>
	<path fill="#8F9CBA" d="M176.082,629.68c2.286,0.023,4.604-0.341,6.814,0.575C180.605,630.301,178.293,630.591,176.082,629.68z"/>
	<path fill="#C1C7DC" d="M200.027,627.632c-2.832,0.418-5.419-0.672-8.178-1.198c1.588-1.816,7.949-3.377,12.963-3.268
		c-0.745,0.66-1.49,1.319-2.234,1.979C201.69,625.934,200.53,626.446,200.027,627.632z"/>
	<path fill="#8F9CBA" d="M245.867,540.112c-0.291,0.282-0.581,0.564-0.858,0.834c-0.013,0.61,0.489,0.637,0.84,0.736
		c3.665,1.04,7.334,2.064,11.009,3.069c0.592,0.162,1.213,0.262,1.825,0.296c4.314,0.244,8.63,0.451,12.944,0.694
		c6.264,0.353,12.526,0.726,18.789,1.091c0.206,0.012,0.411,0.034,0.616,0.044c5.138,0.249,10.28,0.443,15.414,0.761
		c4.208,0.26,8.406,0.663,12.609,1.008c2.973,0.244,5.948,0.468,8.918,0.749c5.939,0.562,11.878,1.123,17.811,1.749
		c6.037,0.637,12.069,1.316,18.096,2.041c5.822,0.701,11.638,1.458,17.449,2.249c1.297,0.177,2.679-0.054,3.874,0.571
		c0.064,0.715-0.413,0.766-0.788,0.761c-4.834-0.065-9.678,0.301-14.501-0.356c-1.218-0.166-2.466-0.118-3.701-0.153
		c-8.951-0.254-17.916-0.277-26.847-0.838c-5.766-0.362-11.531-0.162-17.279-0.527c-7.816-0.497-15.644-0.341-23.454-0.701
		c-3.699-0.17-7.395-0.411-11.1-0.419c-0.553-0.001-1.233-0.275-1.746,0.573c0.434,0.233,0.836,0.495,1.272,0.676
		c8.654,3.589,17.312,7.167,25.966,10.755c0.761,0.315,1.521,0.642,2.247,1.028c2.976,1.582,6.176,2.238,9.512,2.346
		c6.28,0.204,12.511,0.954,18.743,1.695c2.554,0.304,5.114,0.564,7.667,0.874c0.68,0.083,1.475-0.041,1.995,0.933
		c-1.686,0.56-3.363,0.762-5.079,0.774c-4.429,0.03-8.858,0.056-13.286,0.105c-0.899,0.01-1.798,0.109-2.603,0.161
		c-0.32,0.724,0.092,0.952,0.438,1.127c3.583,1.814,7.166,3.629,10.774,5.39c0.726,0.354,1.548,0.611,2.348,0.694
		c2.659,0.277,5.328,0.462,7.994,0.668c4.511,0.35,9.023,0.689,13.535,1.034c0.205,0.016,0.409,0.049,0.615,0.06
		c4.623,0.252,9.248,0.466,13.868,0.763c4.618,0.296,9.231,0.674,13.846,1.018c0.411,0.031,0.82,0.083,1.231,0.107
		c4.21,0.252,8.425,0.453,12.631,0.766c3.794,0.282,7.577,0.714,11.369,1.029c3.485,0.29,6.979,0.485,10.465,0.771
		c3.69,0.303,7.375,0.664,11.061,1c0.513,0.047,1.024,0.104,1.537,0.146c4.92,0.404,9.839,0.813,14.76,1.204
		c1.026,0.082,2.06,0.065,3.085,0.152c0.802,0.069,1.596,0.229,2.349,0.342c0.128,0.856-0.429,0.76-0.761,0.76
		c-7.313,0.002-14.642,0.287-21.932-0.125c-6.384-0.361-12.77-0.109-19.134-0.513c-6.89-0.437-13.796-0.269-20.671-0.705
		c-4.321-0.274-8.637-0.309-12.953-0.507c-6.37-0.293-12.733-0.719-19.103-1.011c-3.291-0.151-6.589-0.143-9.884-0.19
		c-0.499-0.007-0.999,0.082-1.836,0.156c0.39,0.515,0.552,0.886,0.835,1.08c2.294,1.57,4.623,3.09,6.914,4.664
		c0.887,0.61,1.836,0.897,2.895,0.905c1.648,0.012,3.296,0.041,4.943,0.048c4.738,0.02,9.487-0.176,14.211,0.09
		c9.568,0.539,19.142,0.4,28.713,0.556c0.584,0.01,1.166,0.157,1.685,0.232c0.204,0.8-0.311,0.862-0.669,0.922
		c-3.756,0.622-7.51,1.272-11.28,1.8c-3.871,0.542-7.759,0.953-11.638,1.438c-0.171,0.021-0.322,0.205-0.482,0.313
		c0.964,0.719,0.964,0.705,3.304,0.873c1.126,0.081,2.241,0.317,3.361,0.479c1.222,0.176,2.445,0.35,3.668,0.517
		c1.122,0.153,2.246,0.292,3.368,0.443c1.224,0.164,2.448,0.329,3.671,0.503c1.121,0.16,2.238,0.342,3.359,0.497
		c1.206,0.167,2.418,0.307,3.832,1.105c-0.622,0.289-0.94,0.539-1.28,0.574c-0.817,0.082-1.645,0.076-2.468,0.083
		c-2.781,0.024-5.562,0.018-8.342,0.06c-12.351,0.188-24.702,0.407-37.054,0.564c-1.723,0.022-3.192,0.46-4.597,1.462
		c-2.247,1.604-4.585,3.083-7.193,4.821c0.652,0.275,0.984,0.542,1.308,0.533c3.496-0.097,6.99-0.234,10.485-0.37
		c0.514-0.02,1.024-0.117,1.538-0.135c7.096-0.247,14.195-0.431,21.289-0.743c6.786-0.299,13.587-0.376,20.358-0.77
		c6.178-0.359,12.355-0.152,18.515-0.517c9.979-0.591,19.963-0.495,29.948-0.522c1.016-0.003,2.033,0,3.077,0.215
		c-1.042,0.739-2.213,0.866-3.409,0.968c-4.201,0.358-8.399,0.758-12.6,1.12c-2.767,0.238-5.536,0.45-8.305,0.654
		c-3.591,0.265-7.185,0.481-10.774,0.775c-3.587,0.294-7.168,0.671-10.753,0.986c-2.869,0.252-5.739,0.492-8.612,0.691
		c-4.003,0.278-8.01,0.493-12.012,0.77c-4.719,0.326-9.436,0.689-14.154,1.038c-0.205,0.015-0.409,0.053-0.614,0.065
		c-4.52,0.25-9.042,0.466-13.559,0.756c-4.721,0.302-9.436,0.681-14.155,1.012c-1.335,0.094-2.672,0.19-4.009,0.198
		c-3.664,0.022-7.127,0.713-10.366,2.55c-2.415,1.37-4.966,2.499-7.441,3.766c-0.507,0.26-0.945,0.655-1.411,0.984
		c0.61,0.95,1.405,0.663,2.072,0.672c5.046,0.062,10.093,0.079,15.14,0.131c1.027,0.011,2.058,0.07,3.078,0.187
		c0.341,0.039,0.653,0.33,1.365,0.716c-0.966,0.325-1.512,0.595-2.086,0.687c-1.727,0.276-3.461,0.528-5.2,0.707
		c-6.139,0.634-12.279,1.257-18.424,1.831c-1.637,0.153-3.292,0.158-4.939,0.16c-1.892,0.002-3.649,0.465-5.378,1.214
		c-7.745,3.358-15.497,6.699-23.267,9.999c-2.273,0.965-4.617,1.762-6.919,2.661c-0.729,0.285-1.515,0.508-2.318,1.314
		c0.693,0.088,1.071,0.183,1.449,0.177c2.471-0.038,4.942-0.066,7.411-0.161c2.054-0.078,4.104-0.304,6.158-0.355
		c3.397-0.085,6.81,0.095,10.193-0.152c7.505-0.547,15.034-0.243,22.526-0.7c5.352-0.326,10.713-0.13,16.041-0.552
		c6.17-0.488,12.363-0.185,18.507-0.7c5.356-0.449,10.699-0.289,16.047-0.411c0.6-0.014,1.202,0.1,1.763,0.15
		c0.106,0.715-0.313,0.857-0.702,0.904c-3.881,0.472-7.766,0.908-11.646,1.38c-4.289,0.522-8.573,1.096-12.864,1.602
		c-4.597,0.543-9.201,1.036-13.802,1.546c-1.943,0.215-3.886,0.431-5.831,0.623c-5.732,0.567-11.46,1.168-17.198,1.666
		c-3.894,0.338-7.802,0.51-11.702,0.784c-4.616,0.324-9.231,0.678-13.846,1.021c-0.308,0.023-0.614,0.072-0.923,0.085
		c-5.654,0.251-11.31,0.458-16.961,0.757c-5.648,0.299-11.291,0.688-16.937,1.039c-0.308,0.019-0.619,0.083-0.924,0.063
		c-3.468-0.229-6.723,0.75-9.985,1.716c-1.678,0.497-3.369,0.951-5.061,1.399c-1,0.265-2.005,0.498-2.751,1.294
		c-3.064-0.341-6.125-0.696-9.191-1.017c-2.557-0.268-5.114-0.556-7.678-0.726c-4.413-0.292-8.832-0.492-13.247-0.748
		c-0.994-0.058-2.043,0.208-2.926-0.325c-0.242-0.772,0.275-1.035,0.684-1.292c3.575-2.244,7.162-4.467,10.747-6.696
		c0.175-0.109,0.361-0.199,0.535-0.308c1.566-0.98,3.018-2.396,4.723-2.84c2.454-0.638,5.088-0.678,7.653-0.776
		c3.395-0.131,6.797-0.057,10.196-0.099c3.291-0.042,6.59,0.117,9.862-0.465c0.902-0.16,1.849-0.083,2.776-0.089
		c5.356-0.033,10.714,0.018,16.068-0.113c3.694-0.09,7.382-0.427,11.073-0.663c0.068-0.004,0.129-0.124,0.284-0.284
		c-2.618-1.295-5.481-0.686-8.166-1.202c-2.614-0.503-5.312-0.579-7.976-0.804c-2.766-0.234-5.535-0.45-8.306-0.623
		c-2.669-0.167-5.341-0.284-8.013-0.395c-2.775-0.115-5.553-0.174-8.328-0.297c-2.634-0.117-5.296,0.218-8.179-0.338
		c0.296-0.546,0.396-0.968,0.662-1.186c2.786-2.28,5.594-4.534,8.407-6.781c1.257-1.004,2.762-1.312,4.316-1.501
		c8.271-1.004,16.549-1.953,24.806-3.056c7.445-0.994,14.869-2.15,22.299-3.261c2.443-0.365,4.879-0.783,7.306-1.24
		c0.545-0.102,1.041-0.468,1.874-0.861c-0.644-0.388-0.951-0.714-1.287-0.748c-1.021-0.104-2.054-0.124-3.082-0.125
		c-8.343-0.01-16.686-0.023-25.03-0.003c-3.394,0.008-6.782-0.037-10.174,0.421c-2.228,0.301-4.523,0.117-6.788,0.118
		c-0.272,0-0.543-0.197-1.045-0.393c0.315-0.488,0.501-0.956,0.835-1.263c1.745-1.597,3.531-3.149,5.295-4.726
		c0.731-0.654,1.606-0.849,2.551-0.948c3.989-0.419,7.976-0.858,11.961-1.322c1.307-0.152,2.617-0.354,3.867-1.076
		c-1.241-0.69-1.242-0.674-3.176-0.75c-1.027-0.041-2.053-0.135-3.077-0.227c-1.126-0.101-2.249-0.243-3.375-0.338
		c-1.008-0.085-2.02-0.131-2.926-0.187c-0.593-1.232,0.265-1.699,0.76-2.291c0.894-1.07,1.878-1.86,3.461-1.455
		c0.536,0.137,1.257-0.048,1.774-0.315c1.352-0.699,2.781-0.675,4.222-0.681c7.004-0.03,14.008-0.038,21.012-0.102
		c1.641-0.015,3.281-0.224,4.922-0.328c1.129-0.072,2.26-0.155,3.391-0.166c3.502-0.034,7.004-0.011,10.506-0.056
		c3.291-0.042,6.593,0.126,9.859-0.497c0.6-0.115,1.233-0.088,1.85-0.081c5.577,0.068,11.085-0.699,16.594-1.403
		c1.626-0.208,3.219-0.695,4.812-1.112c0.479-0.125,0.932-0.409,1.35-0.691c0.38-0.256,0.374-1.175-0.03-1.364
		c-0.826-0.385-1.673-0.801-2.556-0.974c-5.255-1.028-10.557-1.609-15.907-2.012c-5.76-0.434-11.535-0.208-17.27-0.642
		c-10.6-0.802-21.204-0.267-31.801-0.553c-4.626-0.125-9.224-0.619-13.807-1.232c-0.655-0.088-1.35-0.498-1.852-0.952
		c-0.591-0.535-0.992-1.28-1.42-1.858c0.171-0.806,0.727-0.779,1.219-0.878c2.743-0.555,5.523-0.571,8.304-0.614
		c0.885-0.014,1.825,0.14,2.872-0.585c-0.45-0.343-0.704-0.681-1.02-0.754c-1.602-0.373-3.206-0.777-4.834-0.983
		c-2.652-0.336-5.324-0.509-7.983-0.791c-0.918-0.097-1.837-0.265-2.731-0.494c-0.586-0.15-1.235-0.346-1.673-0.731
		c-1.996-1.754-3.926-3.581-5.826-5.332c0.197-0.812,0.746-0.826,1.242-0.81c5.861,0.198,11.741-0.315,17.587,0.477
		c0.913,0.124,1.85,0.098,2.776,0.101c3.502,0.013,7.006,0.082,10.506-0.007c4.523-0.116,9.044-0.357,13.564-0.57
		c0.347-0.016,0.684-0.237,1.557-0.558c-0.939-0.379-1.349-0.629-1.79-0.709c-3.343-0.6-6.686-1.203-10.04-1.735
		c-4.777-0.757-9.559-1.487-14.347-2.166c-5.5-0.781-11.006-1.523-16.516-2.228c-4.999-0.639-10.011-1.178-15.008-1.831
		c-0.884-0.116-1.872-0.377-2.56-0.901c-3.026-2.306-5.963-4.73-8.921-7.124c-0.141-0.114-0.176-0.358-0.348-0.73
		c0.317-0.156,0.628-0.422,0.96-0.451c0.921-0.078,1.851-0.057,2.778-0.076c3.085-0.064,6.183,0.119,9.24-0.495
		c0.3-0.06,0.615-0.047,0.924-0.061c5.241-0.238,10.486-0.409,15.721-0.736c3.281-0.205,6.548-0.646,9.821-0.974
		c2.763-0.277,5.527-0.54,8.29-0.821c0.367-0.037,0.728-0.142,1.532-0.305c-1.601-0.908-2.926-0.88-4.234-0.89
		c-4.841-0.034-9.683-0.018-14.523-0.097c-2.053-0.033-4.102-0.261-6.154-0.385c-1.027-0.062-2.056-0.117-3.085-0.127
		c-3.914-0.037-7.829-0.006-11.742-0.097c-2.567-0.06-5.129-0.329-7.697-0.423c-2.572-0.095-5.149-0.159-7.722-0.106
		c-1.928,0.04-3.602-0.439-5.231-1.494c-4.492-2.911-9.054-5.714-13.582-8.569c-0.422-0.266-0.799-0.604-1.142-0.866
		c0.145-0.866,0.721-0.791,1.198-0.818c4.107-0.236,8.232-0.295,12.319-0.721c6.44-0.671,12.937-0.891,19.298-2.252
		C244.417,540.152,245.15,540.171,245.867,540.112z"/>
	<path fill="#8F9CBA" d="M235.398,539.083c1.265-0.151,2.521-0.213,3.712,0.371C237.845,539.609,236.585,539.714,235.398,539.083z"
		/>
	<path fill="#8F9CBA" d="M232.78,538.63c0.456,0.111,0.913,0.221,1.369,0.332C233.568,539.363,233.134,539.16,232.78,538.63z"/>
	<path fill="#8F9CBA" d="M236.698,660.66c-0.654,0.127-1.309,0.254-1.963,0.381C235.389,660.914,236.043,660.787,236.698,660.66z"/>
	<path fill="#C1C7DC" d="M569.146,545.701c2.027,0.031,4.054,0.062,6.08,0.093c-2.053,0.472-4.103,0.858-6.096-0.073
		C569.13,545.721,569.146,545.701,569.146,545.701z"/>
	<path fill="#C1C7DC" d="M208.638,587.253c-0.891,0.474-1.365,0.885-1.897,0.984c-2.628,0.49-5.268,0.924-7.912,1.326
		c-3.153,0.48-6.314,0.904-9.469,1.371c-0.175,0.026-0.326,0.216-0.663,0.453c0.529,1.62,1.466,2.726,3.326,2.999
		c2.645,0.388,5.28,0.852,7.912,1.319c0.446,0.079,0.86,0.343,1.667,0.678c-1.281,0.78-2.313,0.583-3.275,0.67
		c-0.922,0.083-1.852,0.094-2.771,0.199c-1.006,0.115-2.004,0.301-3.155,0.479c-0.072,0.611-0.182,1.095-0.172,1.577
		c0.014,0.684,0.386,1.193,1.068,1.325c1.313,0.253,2.641,0.427,3.96,0.655c4.868,0.844,9.734,1.694,14.598,2.556
		c0.178,0.031,0.329,0.21,0.67,0.44c-0.333,0.271-0.583,0.611-0.908,0.713c-0.781,0.245-1.592,0.5-2.4,0.536
		c-4.314,0.196-8.616,0.817-12.952,0.324c-1.223-0.139-2.468-0.102-3.703-0.125c-1.466-0.028-2.276,0.689-2.474,2.334
		c2.265,1.048,4.734,1.212,7.107,1.687c2.397,0.479,4.83,0.782,7.203,1.155c0.232,0.837-0.339,1.056-0.779,1.186
		c-1.082,0.319-2.185,0.647-3.301,0.763c-5.121,0.533-10.247,1.027-15.404,0.424c-0.863-0.101-1.803-0.367-2.816,0.566
		c1.962,0.793,3.63,1.607,5.604,1.761c3.075,0.24,6.137,0.664,9.201,1.04c0.496,0.061,0.989,0.234,1.456,0.423
		c0.457,0.184,0.526,1.046,0.101,1.299c-0.431,0.256-0.898,0.55-1.377,0.61c-2.853,0.358-5.668,0.98-8.582,0.928
		c-2.151-0.039-4.316,0.184-6.46,0.418c-5.576,0.61-11.118,0.253-16.617-0.648c-1.905-0.312-3.786-1.016-5.564-1.799
		c-2.957-1.302-5.145-3.523-6.03-6.654c-0.807-2.858-1.505-5.799-1.765-8.747c-0.37-4.195,1.577-7.629,4.738-10.239
		c3.03-2.502,6.341-4.601,10.398-5.11c0.608-0.076,1.211-0.252,1.796-0.443c3.357-1.1,6.789-1.669,10.329-1.584
		c0.819,0.02,1.643-0.102,2.464-0.164c3.906-0.295,7.803-0.416,11.712,0.092c1.83,0.238,3.707,0.09,5.549,0.269
		c2.453,0.238,4.898,0.584,7.333,0.972C207.031,586.374,207.626,586.8,208.638,587.253z"/>
</g>
</svg>
